<svg width="64" height="40" viewBox="0 0 64 40" fill="none" xmlns="http://www.w3.org/2000/svg">
<path d="M32.0742 37.748C29.3398 37.748 26.749 37.4199 24.3018 36.7637C21.8682 36.1074 19.6191 35.2324 17.5547 34.1387C15.4902 33.0449 13.6309 31.8418 11.9766 30.5293C10.3359 29.2031 8.92773 27.8838 7.75195 26.5713C6.58984 25.2588 5.70117 24.042 5.08594 22.9209C4.48438 21.7861 4.18359 20.877 4.18359 20.1934C4.18359 19.4961 4.48438 18.5869 5.08594 17.4658C5.70117 16.3447 6.58984 15.1211 7.75195 13.7949C8.92773 12.4688 10.3359 11.1562 11.9766 9.85742C13.6309 8.54492 15.4902 7.3418 17.5547 6.24805C19.6191 5.1543 21.8682 4.2793 24.3018 3.62305C26.749 2.95312 29.3398 2.61816 32.0742 2.61816C34.8496 2.61816 37.4609 2.95312 39.9082 3.62305C42.3555 4.2793 44.6113 5.1543 46.6758 6.24805C48.7539 7.3418 50.6064 8.54492 52.2334 9.85742C53.874 11.1562 55.2686 12.4688 56.417 13.7949C57.5791 15.1211 58.4609 16.3447 59.0625 17.4658C59.6641 18.5869 59.9648 19.4961 59.9648 20.1934C59.9648 20.877 59.6641 21.7861 59.0625 22.9209C58.4609 24.042 57.5791 25.2588 56.417 26.5713C55.2686 27.8838 53.8809 29.2031 52.2539 30.5293C50.627 31.8418 48.7744 33.0449 46.6963 34.1387C44.6318 35.2324 42.3691 36.1074 39.9082 36.7637C37.4609 37.4199 34.8496 37.748 32.0742 37.748ZM32.0742 31.4521C33.6328 31.4521 35.0889 31.165 36.4424 30.5908C37.8096 30.0029 39.0059 29.1895 40.0312 28.1504C41.0703 27.1113 41.877 25.915 42.4512 24.5615C43.0391 23.208 43.333 21.752 43.333 20.1934C43.333 18.6348 43.0391 17.1787 42.4512 15.8252C41.877 14.4717 41.0703 13.2754 40.0312 12.2363C39.0059 11.1973 37.8096 10.3906 36.4424 9.81641C35.0889 9.22852 33.6328 8.93457 32.0742 8.93457C30.5293 8.93457 29.0732 9.22852 27.7061 9.81641C26.3525 10.3906 25.1562 11.1973 24.1172 12.2363C23.0918 13.2754 22.2852 14.4717 21.6973 15.8252C21.1094 17.1787 20.8154 18.6348 20.8154 20.1934C20.8154 21.752 21.1094 23.208 21.6973 24.5615C22.2852 25.915 23.0918 27.1113 24.1172 28.1504C25.1562 29.1895 26.3525 30.0029 27.7061 30.5908C29.0732 31.165 30.5293 31.4521 32.0742 31.4521ZM32.0742 24.418C30.9121 24.418 29.9209 24.0078 29.1006 23.1875C28.2803 22.3672 27.8701 21.3691 27.8701 20.1934C27.8701 19.0176 28.2803 18.0195 29.1006 17.1992C29.9209 16.3789 30.9121 15.9688 32.0742 15.9688C33.2363 15.9688 34.2275 16.3789 35.0479 17.1992C35.8818 18.0195 36.2988 19.0176 36.2988 20.1934C36.2988 21.3691 35.8818 22.3672 35.0479 23.1875C34.2275 24.0078 33.2363 24.418 32.0742 24.418Z" fill="#141617"/>
</svg>
