<svg width="23" height="16" viewBox="0 0 23 16" fill="none" xmlns="http://www.w3.org/2000/svg">
<path d="M15.7344 7.97656C15.9167 7.97656 16.0625 7.91406 16.1719 7.78906C16.2865 7.66406 16.3438 7.50781 16.3438 7.32031V4.24219C16.3438 3.99219 16.276 3.8099 16.1406 3.69531C16.0104 3.57552 15.8333 3.51562 15.6094 3.51562H12.5C12.3177 3.51562 12.1667 3.57292 12.0469 3.6875C11.9323 3.79688 11.875 3.94271 11.875 4.125C11.875 4.30208 11.9323 4.44792 12.0469 4.5625C12.1667 4.67188 12.3229 4.72656 12.5156 4.72656H13.4844L14.4375 4.63281L13.3984 5.54688L11.8359 7.10938C11.7786 7.17188 11.7292 7.24479 11.6875 7.32812C11.651 7.40625 11.6328 7.48698 11.6328 7.57031C11.6328 7.75781 11.6901 7.91146 11.8047 8.03125C11.9245 8.15104 12.0755 8.21094 12.2578 8.21094C12.3568 8.21094 12.4453 8.19271 12.5234 8.15625C12.6068 8.11979 12.6849 8.06771 12.7578 8L14.3047 6.44531L15.2266 5.4375L15.1328 6.4375V7.33594C15.1328 7.52344 15.1875 7.67708 15.2969 7.79688C15.4115 7.91667 15.5573 7.97656 15.7344 7.97656ZM6.75 8.75781C6.57292 8.75781 6.42708 8.82031 6.3125 8.94531C6.20312 9.07031 6.14844 9.22396 6.14844 9.40625V12.4922C6.14844 12.7422 6.21354 12.9271 6.34375 13.0469C6.47917 13.1615 6.65625 13.2188 6.875 13.2188H9.99219C10.1693 13.2188 10.3177 13.1641 10.4375 13.0547C10.5573 12.9401 10.6172 12.7917 10.6172 12.6094C10.6172 12.4323 10.5573 12.2865 10.4375 12.1719C10.3177 12.0573 10.1667 12 9.98438 12H9.00781L8.0625 12.1016L9.08594 11.1875L10.6484 9.625C10.7109 9.55729 10.7604 9.48438 10.7969 9.40625C10.8385 9.32812 10.8594 9.2474 10.8594 9.16406C10.8594 8.97656 10.7995 8.82292 10.6797 8.70312C10.5651 8.58333 10.4141 8.52344 10.2266 8.52344C10.1276 8.52344 10.0391 8.54167 9.96094 8.57812C9.88281 8.61458 9.8099 8.66667 9.74219 8.73438L8.1875 10.2812L7.26562 11.2969L7.36719 10.2969V9.39062C7.36719 9.20833 7.3099 9.05729 7.19531 8.9375C7.08073 8.81771 6.93229 8.75781 6.75 8.75781ZM4.55469 15.6562C3.71094 15.6562 3.07292 15.4427 2.64062 15.0156C2.20833 14.5885 1.99219 13.9583 1.99219 13.125V3.60938C1.99219 2.77604 2.20833 2.14583 2.64062 1.71875C3.07292 1.28646 3.71094 1.07031 4.55469 1.07031H17.9297C18.7786 1.07031 19.4193 1.28646 19.8516 1.71875C20.2839 2.14583 20.5 2.77604 20.5 3.60938V13.125C20.5 13.9583 20.2839 14.5885 19.8516 15.0156C19.4193 15.4427 18.7786 15.6562 17.9297 15.6562H4.55469Z" fill="white"/>
</svg>
