<svg width="23" height="16" viewBox="0 0 23 16" fill="none" xmlns="http://www.w3.org/2000/svg">
<path d="M12.2422 3.75C12.0599 3.75 11.9115 3.8125 11.7969 3.9375C11.6875 4.05729 11.6328 4.21094 11.6328 4.39844V7.48438C11.6328 7.72917 11.6979 7.91146 11.8281 8.03125C11.9583 8.15104 12.1354 8.21094 12.3594 8.21094H15.4688C15.6562 8.21094 15.8073 8.15365 15.9219 8.03906C16.0417 7.92448 16.1016 7.77604 16.1016 7.59375C16.1016 7.42188 16.0417 7.27865 15.9219 7.16406C15.8021 7.04948 15.6484 6.99219 15.4609 6.99219H14.4922L13.5391 7.09375L14.5703 6.17969L16.1328 4.60938C16.1901 4.54688 16.2396 4.47656 16.2812 4.39844C16.3229 4.3151 16.3438 4.23177 16.3438 4.14844C16.3438 3.96094 16.2839 3.8099 16.1641 3.69531C16.0443 3.57552 15.8932 3.51562 15.7109 3.51562C15.612 3.51562 15.5234 3.53385 15.4453 3.57031C15.3672 3.60677 15.2917 3.65625 15.2188 3.71875L13.6719 5.27344L12.75 6.28906L12.8359 5.28906V4.38281C12.8359 4.19531 12.7786 4.04427 12.6641 3.92969C12.5547 3.8099 12.4141 3.75 12.2422 3.75ZM10.25 12.9844C10.4271 12.9844 10.5729 12.9219 10.6875 12.7969C10.8021 12.6719 10.8594 12.5182 10.8594 12.3359V9.25C10.8594 9.00521 10.7917 8.82292 10.6562 8.70312C10.526 8.58333 10.3516 8.52344 10.1328 8.52344H7.01562C6.83333 8.52344 6.6849 8.58073 6.57031 8.69531C6.45573 8.8099 6.39844 8.95833 6.39844 9.14062C6.39844 9.3125 6.45573 9.45573 6.57031 9.57031C6.6901 9.6849 6.84375 9.74219 7.03125 9.74219H8L8.95312 9.64062L7.91406 10.5547L6.35938 12.1172C6.29688 12.1849 6.24479 12.2604 6.20312 12.3438C6.16667 12.4219 6.14844 12.5026 6.14844 12.5859C6.14844 12.7734 6.20833 12.9271 6.32812 13.0469C6.44792 13.1615 6.59896 13.2188 6.78125 13.2188C6.875 13.2188 6.96354 13.2005 7.04688 13.1641C7.13021 13.1276 7.20573 13.0755 7.27344 13.0078L8.82031 11.4609L9.74219 10.4375L9.65625 11.4453V12.3516C9.65625 12.5339 9.71094 12.6849 9.82031 12.8047C9.92969 12.9245 10.0729 12.9844 10.25 12.9844ZM4.55469 15.6562C3.71094 15.6562 3.07292 15.4427 2.64062 15.0156C2.20833 14.5885 1.99219 13.9583 1.99219 13.125V3.60938C1.99219 2.77604 2.20833 2.14583 2.64062 1.71875C3.07292 1.28646 3.71094 1.07031 4.55469 1.07031H17.9297C18.7786 1.07031 19.4193 1.28646 19.8516 1.71875C20.2839 2.14583 20.5 2.77604 20.5 3.60938V13.125C20.5 13.9583 20.2839 14.5885 19.8516 15.0156C19.4193 15.4427 18.7786 15.6562 17.9297 15.6562H4.55469Z" fill="white"/>
</svg>
