<svg width="65" height="65" viewBox="0 0 65 65" fill="none" xmlns="http://www.w3.org/2000/svg">
<path d="M51.5654 51.5654H49.2598V49.2598H51.5654V51.5654Z" fill="white"/>
<path fill-rule="evenodd" clip-rule="evenodd" d="M31.4141 2.23926H33.6533V4.47852H35.8252V0H47.0879V4.54492H44.7812V2.30664H38.1309V4.54492H35.8926V6.78418H33.5859V4.54492H26.9355V6.7168H29.1748V8.95605H35.8926V11.1953H38.0645V6.7168H40.3701V8.95605H42.542V6.7168H44.8486V8.95605H47.0879V11.2627H40.3701V13.4346H42.6094V15.6738H44.7812V13.4346H47.0879V17.9121H53.8047V20.1514H56.0439V22.3906H58.2158V17.9121H65V22.458H62.6943V20.2188H60.5225V22.458H58.2832V26.8691H60.4551V24.6299H62.7607V26.8691H65V31.4141H62.6943V29.1748H58.2832V31.4141H53.8047V33.5859H58.2832V35.8252H60.5225V38.0645H62.6943V33.5859H65V40.3701H60.5225V42.542H62.7607V44.7812H65V49.3262H62.7607V51.5654H60.4551V47.0879H58.2832V49.3262H56.0439V51.499H58.2832V53.7373H60.5225V58.2158H62.7607V62.7607H60.5225V65H58.2158V62.7607H56.0439V65H53.7373V60.5225H47.0879V62.6943H49.3262V65H47.0205V62.7607H44.8486V65H38.0645V60.5225H35.8926V65H33.5859V62.7607H31.4141V65H29.1074V58.2832H26.9355V60.5225H24.6299V58.2832H20.2188V60.4551H22.458V65H20.1514V60.5225H17.9121V53.7373H20.2188V55.9766H22.3906V53.7373H29.1748V55.9766H31.4141V58.2158H35.8252V56.0439H33.5859V51.499H35.8926V55.9766H38.0645V53.7373H40.3027V51.5654H38.0645V49.3262H35.8252V47.0879H26.9355V51.5654H22.3906V49.3262H17.9121V47.0879H13.4346V44.7812H15.6738V42.6094H9.02344V44.7812H11.2627V47.0879H8.95605V44.8486H6.78418V47.0879H4.47852V44.7812H6.7168V42.542H8.95605V40.3027H17.9795V44.7812H22.3906V35.8926H20.2188V38.1309H13.4346V35.8926H11.2627V38.1309H8.95605V35.8926H6.78418V38.1309H4.47852V35.8252H6.7168V33.5859H8.95605V31.4141H6.7168V29.1748H4.47852V24.6973H2.30664V29.1748H0V24.6299H2.23926V22.3906H6.78418V26.8691H8.95605V24.6299H11.1953V22.458H8.95605V20.2188H4.47852V17.9121H11.2627V22.3906H22.458V24.6299H24.6299V22.3906H26.9355V26.8691H29.1074V22.3906H31.4141V24.6299H33.6533V29.1074H38.0645V26.9355H35.8252V24.6299H38.1309V26.8691H40.3027V17.9121H42.542V15.7402H40.3027V13.502H38.1309V22.458H33.5859V20.1514H35.8252V17.9795H33.5859V15.7402H31.4141V17.9795H29.1748V20.2188H24.6299V17.9795H22.458V20.2188H17.9121V11.1953H20.1514V8.95605H22.458V11.1953H24.6299V8.95605H26.8691V6.78418H24.6299V4.54492H22.3906V2.23926H24.6973V4.47852H26.8691V0H31.4141V2.23926ZM38.1309 58.2158H40.3701V62.6943H42.542V56.0439H38.1309V58.2158ZM58.2832 62.6943H60.4551V58.2832H58.2832V62.6943ZM24.6973 58.2158H26.8691V56.0439H24.6973V58.2158ZM49.3262 58.2158H51.499V56.0439H49.3262V58.2158ZM53.8047 58.2158H55.9766V56.0439H53.8047V58.2158ZM42.6094 55.9766H44.7812V53.8047H42.6094V55.9766ZM47.0879 53.7373H53.7373V47.0879H47.0879V53.7373ZM42.6094 26.9355H40.3701V29.1748H38.1309V31.3467H42.542V29.1074H44.8486V31.4141H42.6094V33.6533H31.3467V31.3467H33.5859V29.1748H26.9355V31.3467H29.1748V35.8926H26.8691V33.6533H24.6973V38.0645H26.9355V40.3027H31.3467V35.8252H33.6533V40.3701H31.4141V42.542H35.8926V44.7812H38.0645V42.542H42.6094V44.8486H38.1309V47.0205H40.3701V51.499H42.542V47.0205H44.7812V40.3701H40.3027V38.1309H38.1309V40.3701H35.8252V38.0645H38.0645V35.8252H42.6094V38.0645H47.0879V44.7812H49.2598V38.0645H55.9766V35.8926H53.7373V33.6533H51.5654V35.8926H49.2598V33.6533H47.0879V35.8926H44.7812V33.5859H47.0205V26.9355H44.7812V24.6299H47.0205V22.458H42.6094V26.9355ZM24.6973 44.8486H22.458V47.0205H26.8691V44.7812H29.1074V42.6094H24.6973V44.8486ZM56.0439 47.0205H58.2158V44.8486H56.0439V47.0205ZM53.8047 42.6094H51.5654V44.7812H55.9766V40.3701H53.8047V42.6094ZM58.2832 44.7812H60.4551V42.6094H58.2832V44.7812ZM13.502 35.8252H15.6738V33.6533H13.502V35.8252ZM17.9795 35.8252H20.1514V33.6533H17.9795V35.8252ZM20.2188 33.5859H24.6299V31.4141H22.3906V24.6973H20.2188V33.5859ZM49.3262 33.5859H51.499V31.4141H49.3262V33.5859ZM11.2627 26.9355H9.02344V31.3467H11.1953V29.1074H13.4346V26.8691H15.6738V24.6973H11.2627V26.9355ZM13.502 31.3467H17.9121V29.1748H13.502V31.3467ZM51.5654 31.3467H53.7373V29.1748H51.5654V31.3467ZM49.3262 29.1074H51.499V26.9355H49.3262V29.1074ZM53.8047 29.1074H58.2158V26.9355H55.9766V22.458H53.8047V29.1074ZM47.0879 22.3906H49.2598V20.2188H47.0879V22.3906ZM44.8486 20.1514H47.0205V17.9795H44.8486V20.1514ZM20.2188 17.9121H22.3906V11.2627H20.2188V17.9121ZM26.9355 17.9121H29.1074V15.7402H26.9355V17.9121ZM24.6973 15.6738H26.8691V13.4346H29.1748V15.6738H31.3467V11.2627H24.6973V15.6738ZM33.6533 15.6738H35.8252V11.2627H33.6533V15.6738Z" fill="white"/>
<path d="M26.9355 65H24.6299V62.6943H26.9355V65Z" fill="white"/>
<path d="M11.1953 53.7373V60.4551H4.47852V53.7373H11.1953Z" fill="white"/>
<path fill-rule="evenodd" clip-rule="evenodd" d="M15.6738 64.9326H0V49.2598H15.6738V64.9326ZM2.23926 62.6943H13.4346V51.499H2.23926V62.6943Z" fill="white"/>
<path d="M31.4141 51.5654H29.1074V49.2598H31.4141V51.5654Z" fill="white"/>
<path d="M2.30664 47.0879H0V38.0645H2.30664V47.0879Z" fill="white"/>
<path d="M15.7402 20.2188H13.4346V17.9121H15.7402V20.2188Z" fill="white"/>
<path d="M11.1953 11.1953H4.47852V4.47852H11.1953V11.1953Z" fill="white"/>
<path fill-rule="evenodd" clip-rule="evenodd" d="M15.6738 15.6738H0V0H15.6738V15.6738ZM2.23926 13.4346H13.4346V2.23926H2.23926V13.4346Z" fill="white"/>
<path d="M60.4551 11.1953H53.7373V4.47852H60.4551V11.1953Z" fill="white"/>
<path fill-rule="evenodd" clip-rule="evenodd" d="M64.9326 15.6738H49.2598V0H64.9326V15.6738ZM51.499 13.4346H62.6943V2.23926H51.499V13.4346Z" fill="white"/>
<path d="M20.2188 6.78418H17.9121V0H20.2188V6.78418Z" fill="white"/>
</svg>
