<svg width="54" height="17" viewBox="0 0 54 17" fill="none" xmlns="http://www.w3.org/2000/svg">
<path fill-rule="evenodd" clip-rule="evenodd" d="M6.26758 3.62305C8.03823 3.62314 9.47447 4.25397 10.5605 5.5166C11.657 6.75784 12.205 8.25801 12.2051 10.0068C12.2051 10.3139 12.181 10.6287 12.1328 10.9502L12.1113 11.0967H2.47266C2.66071 12.0313 3.07766 12.7568 3.7168 13.2852L3.84961 13.3887C4.5273 13.8884 5.34643 14.1406 6.31445 14.1406C7.01031 14.1406 7.62482 13.9903 8.16113 13.6924C8.71676 13.3768 9.105 12.984 9.33789 12.5186L9.38477 12.4238H11.8691L11.7979 12.6475C11.4408 13.767 10.7651 14.6697 9.77734 15.3496H9.77539C8.7865 16.014 7.62263 16.3437 6.29102 16.3438C4.43104 16.3437 2.90929 15.749 1.74316 14.5508L1.74219 14.5498C0.578712 13.3381 0 11.8113 0 9.9834C5.16907e-05 8.17076 0.578988 6.65181 1.74219 5.44043C2.90785 4.2266 4.4221 3.6231 6.26758 3.62305ZM6.24414 5.89648C5.19619 5.89651 4.34363 6.19224 3.67383 6.77246C3.06243 7.31488 2.66051 8.03438 2.47363 8.94043H9.74023C9.58121 7.97204 9.19009 7.24038 8.58008 6.72754C7.92231 6.17463 7.14669 5.89656 6.24414 5.89648Z" fill="white"/>
<path fill-rule="evenodd" clip-rule="evenodd" d="M46.7959 3.62305C48.5661 3.6231 50.0775 4.23647 51.3184 5.46094C52.56 6.68626 53.1816 8.19773 53.1816 9.9834C53.1816 11.7691 52.5599 13.2805 51.3184 14.5059C50.0775 15.7303 48.5661 16.3437 46.7959 16.3438C45.0258 16.3437 43.5153 15.7302 42.2744 14.5059C41.0485 13.2803 40.4346 11.7685 40.4346 9.9834C40.4346 8.19835 41.0486 6.68646 42.2744 5.46094C43.5152 4.23669 45.0259 3.62309 46.7959 3.62305ZM46.7959 5.9668C45.6792 5.96684 44.7425 6.35044 43.9756 7.11719C43.2097 7.88298 42.8262 8.83432 42.8262 9.9834C42.8262 11.1325 43.2098 12.0838 43.9756 12.8496C44.7425 13.6164 45.6792 14 46.7959 14C47.9289 13.9999 48.8732 13.6159 49.6396 12.8496C50.4055 12.0838 50.79 11.1325 50.79 9.9834C50.79 8.83435 50.4055 7.88296 49.6396 7.11719C48.8732 6.35098 47.9289 5.96685 46.7959 5.9668Z" fill="white"/>
<path d="M20.9385 10.8105L24.457 4.02148L24.5059 3.92871H27.041V16.0381H24.6973V8.02441L21.7734 13.6162L21.7246 13.709H20.1514L20.1035 13.6162L17.1807 8.02539V16.0381H14.8125V3.92871H17.3477L20.9385 10.8105Z" fill="white"/>
<path d="M32.377 8.90039L37.1924 3.92871H40.2402L34.4922 9.7959L40.4688 16.0381H37.4277L37.376 15.9844L32.377 10.7432V16.0381H29.9863V3.92871H32.377V8.90039Z" fill="white"/>
<path d="M5.23926 2.50879H2.70605V0H5.23926V2.50879Z" fill="white"/>
<path d="M9.8291 2.50879H7.29492V0H9.8291V2.50879Z" fill="white"/>
</svg>
