<svg width="35" height="23" viewBox="0 0 35 23" fill="none" xmlns="http://www.w3.org/2000/svg">
<path d="M17.2812 21.5C15.7344 21.5 14.2695 21.3125 12.8867 20.9375C11.5039 20.5625 10.2227 20.0664 9.04297 19.4492C7.86328 18.832 6.80078 18.1523 5.85547 17.4102C4.91797 16.6602 4.11328 15.9141 3.44141 15.1719C2.77734 14.4219 2.26953 13.7266 1.91797 13.0859C1.56641 12.4453 1.39062 11.9297 1.39062 11.5391C1.39062 11.1406 1.56641 10.625 1.91797 9.99219C2.26953 9.35156 2.77734 8.65625 3.44141 7.90625C4.11328 7.15625 4.91797 6.41016 5.85547 5.66797C6.80078 4.92578 7.86328 4.24609 9.04297 3.62891C10.2227 3.01172 11.5039 2.51562 12.8867 2.14062C14.2695 1.76562 15.7344 1.57812 17.2812 1.57812C18.8438 1.57812 20.3164 1.76562 21.6992 2.14062C23.0898 2.51562 24.375 3.01172 25.5547 3.62891C26.7344 4.24609 27.793 4.92578 28.7305 5.66797C29.668 6.41016 30.4648 7.15625 31.1211 7.90625C31.7852 8.65625 32.2891 9.35156 32.6328 9.99219C32.9844 10.625 33.1602 11.1406 33.1602 11.5391C33.1602 11.9297 32.9844 12.4453 32.6328 13.0859C32.2891 13.7266 31.7852 14.4219 31.1211 15.1719C30.4648 15.9141 29.668 16.6602 28.7305 17.4102C27.8008 18.1523 26.7461 18.832 25.5664 19.4492C24.3867 20.0664 23.1016 20.5625 21.7109 20.9375C20.3203 21.3125 18.8438 21.5 17.2812 21.5ZM17.2812 18.0898C18.1797 18.0898 19.0234 17.9219 19.8125 17.5859C20.6094 17.2422 21.3086 16.7695 21.9102 16.168C22.5117 15.5664 22.9805 14.8711 23.3164 14.082C23.6602 13.293 23.832 12.4453 23.832 11.5391C23.832 10.6328 23.6602 9.78516 23.3164 8.99609C22.9805 8.20703 22.5117 7.51172 21.9102 6.91016C21.3086 6.30859 20.6094 5.83984 19.8125 5.50391C19.0234 5.16016 18.1797 4.98828 17.2812 4.98828C16.375 4.98828 15.5273 5.16016 14.7383 5.50391C13.9492 5.83984 13.2539 6.30859 12.6523 6.91016C12.0508 7.51172 11.5781 8.20703 11.2344 8.99609C10.8984 9.78516 10.7305 10.6328 10.7305 11.5391C10.7305 12.4453 10.8984 13.293 11.2344 14.082C11.5781 14.8711 12.0508 15.5664 12.6523 16.168C13.2539 16.7695 13.9492 17.2422 14.7383 17.5859C15.5273 17.9219 16.375 18.0898 17.2812 18.0898ZM17.2812 13.9297C16.6172 13.9297 16.0508 13.6992 15.582 13.2383C15.1211 12.7695 14.8906 12.2031 14.8906 11.5391C14.8906 10.875 15.1211 10.3125 15.582 9.85156C16.0508 9.38281 16.6172 9.14844 17.2812 9.14844C17.9375 9.14844 18.5 9.38281 18.9688 9.85156C19.4375 10.3125 19.6719 10.875 19.6719 11.5391C19.6719 12.2031 19.4375 12.7695 18.9688 13.2383C18.5 13.6992 17.9375 13.9297 17.2812 13.9297Z" fill="white"/>
</svg>
