<svg width="15" height="14" viewBox="0 0 15 14" fill="none" xmlns="http://www.w3.org/2000/svg">
<path d="M2.17969 11.4688C2.04688 11.4688 1.9375 11.4395 1.85156 11.3809C1.76562 11.3262 1.69727 11.2539 1.64648 11.1641C1.59961 11.0781 1.56836 10.9863 1.55273 10.8887C1.5293 10.7715 1.51367 10.6406 1.50586 10.4961C1.49805 10.3477 1.49414 10.1875 1.49414 10.0156C1.49414 8.63672 1.79688 7.62305 2.40234 6.97461C3.01172 6.32617 3.99414 6.00195 5.34961 6.00195H9.22852L10.6289 6.08398L8.88281 4.50195L7.58203 3.17773C7.52344 3.11914 7.47656 3.05273 7.44141 2.97852C7.41016 2.90039 7.39453 2.81445 7.39453 2.7207C7.39453 2.54492 7.45312 2.40039 7.57031 2.28711C7.69141 2.16992 7.84375 2.11133 8.02734 2.11133C8.19531 2.11133 8.35156 2.17969 8.49609 2.31641L12.3516 6.16602C12.4922 6.29883 12.5625 6.45898 12.5625 6.64648C12.5625 6.83008 12.4922 6.99219 12.3516 7.13281L8.48438 10.9883C8.34766 11.1211 8.19531 11.1875 8.02734 11.1875C7.84375 11.1875 7.69141 11.1289 7.57031 11.0117C7.45312 10.8945 7.39453 10.748 7.39453 10.5723C7.39453 10.4824 7.41016 10.3984 7.44141 10.3203C7.47656 10.2383 7.52344 10.168 7.58203 10.1094L8.88281 8.79102L10.6289 7.20898L9.22852 7.29102H5.43164C4.7793 7.29102 4.25977 7.38477 3.87305 7.57227C3.49023 7.75977 3.21484 8.05664 3.04688 8.46289C2.87891 8.86914 2.79492 9.40039 2.79492 10.0566C2.79492 10.2168 2.79688 10.3594 2.80078 10.4844C2.80859 10.6055 2.8125 10.7207 2.8125 10.8301C2.8125 11.0176 2.75391 11.1699 2.63672 11.2871C2.51953 11.4082 2.36719 11.4688 2.17969 11.4688Z" fill="#F9FCFF"/>
</svg>
