<svg width="124" height="64" viewBox="0 0 124 64" fill="none" xmlns="http://www.w3.org/2000/svg">
<mask id="path-1-outside-1_206_96" maskUnits="userSpaceOnUse" x="2.48675" y="5.18092" width="118.068" height="59.4674" fill="black">
<rect fill="white" x="2.48675" y="5.18092" width="118.068" height="59.4674"/>
<path d="M12.8631 37.8467L9.14824 29.4932C8.91997 28.9848 8.76161 28.4561 8.71088 28.0994C8.54566 26.9372 9.26852 26.0233 10.4816 25.8508C11.6131 25.6899 12.3539 26.2918 12.9251 27.8226L15.1927 33.8963L15.3863 33.8687L16.0009 27.2917C16.1563 25.6784 16.6694 24.9711 17.8009 24.8102C18.9324 24.6493 19.6674 25.2104 20.2518 26.6874L22.675 32.8325L22.8789 32.8035L23.2517 26.3545C23.3372 24.7615 23.9275 23.9392 25.0794 23.7754C26.2721 23.6058 27.2094 24.2734 27.3703 25.4049C27.4224 25.7719 27.4352 26.3005 27.3928 26.5873L26.1866 35.9524C26.0022 37.3619 25.2823 38.1506 24.0081 38.3318C22.6625 38.5231 21.6828 37.9968 21.0693 36.5344L18.797 31.1582L18.6441 31.18L17.9397 37.1249C17.7772 38.4688 16.9844 39.3303 15.7408 39.5072C14.4869 39.6854 13.5072 39.3047 12.8631 37.8467ZM33.1934 25.3986C36.6186 24.9117 39.0666 26.6956 39.5333 29.9781L39.6376 30.7121C40.1362 34.2188 38.2679 36.5124 34.8427 36.9994C31.3971 37.4893 28.9534 35.8087 28.4577 32.3223L28.3548 31.5986C27.8838 28.2855 29.7478 25.8885 33.1934 25.3986ZM33.6064 28.3767C32.7705 28.4956 32.4132 29.3472 32.6306 30.8763L32.774 31.8855C32.9871 33.384 33.5734 34.143 34.4093 34.0242C35.2656 33.9025 35.5866 33.0144 35.3735 31.5159L35.23 30.5067C35.0126 28.9776 34.4627 28.255 33.6064 28.3767ZM45.6238 32.9498C45.8296 34.3974 45.181 35.3216 43.815 35.5158C42.449 35.71 41.6908 34.9858 41.485 33.5382L40.5401 26.8918C40.3314 25.4238 40.9116 24.5301 42.2368 24.3417C43.4295 24.1722 44.1805 24.6998 44.4767 25.9057L44.6806 25.8767C44.763 24.6274 45.4173 23.8167 46.4979 23.6631C47.028 23.5878 47.4691 23.6914 47.8082 23.9552C48.1372 24.2205 48.3524 24.6371 48.4306 25.1875C48.506 25.7176 48.4198 26.1355 48.1735 26.4513C47.9258 26.7569 47.5077 26.962 46.931 27.0752C45.514 27.3494 44.9528 28.23 45.1586 29.6776L45.6238 32.9498ZM54.7372 31.6541C54.943 33.1017 54.3658 34.0158 53.0406 34.2042C51.6848 34.3969 50.8043 33.6901 50.5985 32.2426L49.1303 21.9161C48.9216 20.4481 49.5324 19.5501 50.878 19.3588C52.2236 19.1675 53.0604 19.8597 53.2691 21.3276L53.9908 26.4042L54.2253 26.3709L56.671 22.9448C57.1127 22.3204 57.5497 22.0295 58.1817 21.9396C59.2215 21.7918 60.0715 22.4301 60.2193 23.4699C60.2947 24 60.1735 24.4644 59.8324 24.9185L58.0617 27.2399L60.6914 29.57C61.2254 30.0349 61.5265 30.5433 61.6048 31.0938C61.7541 32.1438 61.0632 33.0636 60.0031 33.2143C59.2691 33.3187 58.6897 33.1202 58.1047 32.5898L55.1083 29.8022L54.5749 30.5124L54.7372 31.6541ZM78.1834 28.3208C78.3921 29.7887 77.7814 30.6867 76.446 30.8766C75.1004 31.0679 74.2533 30.3771 74.0446 28.9092L73.4881 24.9947C73.3359 23.9243 72.7582 23.3721 71.9121 23.4923C71.0966 23.6083 70.6345 24.3812 70.7809 25.4108L71.333 29.2947C71.5417 30.7626 70.9208 31.6621 69.5854 31.852C68.2398 32.0433 67.403 31.351 67.1943 29.8831L65.7261 19.5566C65.5175 18.0887 66.1384 17.1892 67.484 16.9979C68.8194 16.808 69.6562 17.5003 69.8649 18.9682L70.3403 22.3118L70.5442 22.2828C70.743 21.0482 71.8809 20.0544 73.3285 19.8486C75.5916 19.5268 77.1153 20.8078 77.479 23.3665L78.1834 28.3208ZM86.0861 28.0916C85.7796 29.0088 84.8152 29.6867 83.5512 29.8664C81.4002 30.1722 79.7526 29.0441 79.4729 27.0766C79.1773 24.9971 80.5776 23.5084 83.1858 23.1271L85.347 22.8199L85.2557 22.1777C85.1629 21.5253 84.6418 21.2249 83.8874 21.3322C83.2146 21.4278 82.7368 21.7974 82.2313 22.1189C81.8685 22.3472 81.4913 22.5465 80.8796 22.6334C80.003 22.7581 79.4004 22.2509 79.2918 21.4864C79.1932 20.7932 79.5607 20.0129 80.595 19.3875C81.3204 18.9307 82.3604 18.5645 83.7467 18.3674C86.9782 17.908 89.0437 19.1223 89.4046 21.6606L90.1249 26.727C90.3249 28.1338 89.7083 28.9911 88.4239 29.1737C87.4045 29.3186 86.6112 28.9322 86.2899 28.0627L86.0861 28.0916ZM83.4605 26.1561C83.5402 26.7168 84.0773 27.0564 84.7195 26.9651C85.3821 26.8709 85.8513 26.3674 85.776 25.8373L85.6368 24.8587L84.5766 25.0094C83.8223 25.1167 83.3779 25.5751 83.4605 26.1561ZM96.0229 25.7845C96.2287 27.232 95.5801 28.1563 94.2141 28.3505C92.8481 28.5447 92.0899 27.8205 91.8841 26.3729L90.9392 19.7264C90.7305 18.2585 91.3106 17.3648 92.6359 17.1764C93.8285 17.0068 94.5796 17.5345 94.8758 18.7404L95.0797 18.7114C95.1621 17.4621 95.8164 16.6514 96.897 16.4978C97.4271 16.4224 97.8682 16.5261 98.2073 16.7899C98.5362 17.0551 98.7515 17.4717 98.8297 18.0222C98.9051 18.5523 98.8189 18.9702 98.5726 19.286C98.3248 19.5916 97.9068 19.7966 97.3301 19.9098C95.9131 20.1841 95.3519 21.0647 95.5577 22.5122L96.0229 25.7845ZM107.476 24.5618C107.242 25.7702 106.182 26.649 104.683 26.862C102.227 27.2113 100.495 25.4919 100.031 22.2298L99.9036 21.3328C99.4398 18.0707 100.618 15.9688 103.085 15.6181C104.593 15.4036 105.842 15.9228 106.402 17.008L106.606 16.979L106.156 13.8087C105.947 12.3408 106.558 11.4427 107.903 11.2514C109.249 11.0601 110.086 11.7523 110.294 13.2203L111.762 23.5468C111.971 25.0147 111.36 25.9128 110.015 26.1041C108.832 26.2722 107.981 25.6964 107.68 24.5328L107.476 24.5618ZM104.31 21.5279C104.504 22.8939 105.16 23.6326 106.057 23.5051C106.965 23.3761 107.389 22.4838 107.195 21.1178L107.098 20.4348C106.905 19.079 106.25 18.3505 105.343 18.4795C104.446 18.607 104.02 19.4891 104.213 20.8449L104.31 21.5279ZM24.4054 54.1475C24.6141 55.6154 24.0034 56.5134 22.668 56.7033C21.3224 56.8946 20.4754 56.2038 20.2667 54.7359L19.7101 50.8214C19.558 49.751 18.9802 49.1988 18.1341 49.3191C17.3186 49.435 16.8565 50.2079 17.0029 51.2375L17.5551 55.1214C17.7638 56.5893 17.1428 57.4888 15.8074 57.6787C14.4618 57.87 13.625 57.1778 13.4163 55.7098L11.9482 45.3833C11.7395 43.9154 12.3604 43.0159 13.706 42.8246C15.0414 42.6347 15.8782 43.327 16.0869 44.7949L16.5623 48.1385L16.7662 48.1095C16.965 46.8749 18.103 45.8811 19.5505 45.6753C21.8136 45.3535 23.3373 46.6345 23.7011 49.1932L24.4054 54.1475ZM32.3081 53.9183C32.0017 54.8355 31.0372 55.5134 29.7732 55.6931C27.6223 55.9989 25.9747 54.8708 25.695 52.9033C25.3993 50.8238 26.7996 49.3351 29.4079 48.9539L31.569 48.6466L31.4777 48.0044C31.3849 47.352 30.8638 47.0517 30.1095 47.1589C29.4367 47.2546 28.9588 47.6241 28.4533 47.9456C28.0906 48.1739 27.7133 48.3732 27.1017 48.4601C26.225 48.5848 25.6225 48.0776 25.5138 47.3131C25.4152 46.6199 25.7827 45.8396 26.817 45.2142C27.5424 44.7575 28.5824 44.3912 29.9688 44.1941C33.2003 43.7347 35.2657 44.949 35.6266 47.4873L36.3469 52.5537C36.5469 53.9605 35.9304 54.8178 34.6459 55.0004C33.6265 55.1453 32.8332 54.7589 32.512 53.8894L32.3081 53.9183ZM29.6825 51.9828C29.7622 52.5435 30.2993 52.8831 30.9415 52.7918C31.6041 52.6976 32.0733 52.1941 31.998 51.664L31.8588 50.6854L30.7987 50.8361C30.0443 50.9434 29.5999 51.4018 29.6825 51.9828ZM39.0623 50.8053L36.7866 46.1368C36.6528 45.8542 36.5642 45.5964 36.525 45.3212C36.3584 44.1489 37.0841 43.2553 38.3482 43.0756C39.4593 42.9176 40.2773 43.4773 40.6624 44.6498L42.5531 50.2674L42.7162 50.2442L43.1832 44.3122C43.2802 43.0192 43.8631 42.2915 44.9131 42.1422C46.1262 41.9698 47.0504 42.6184 47.2142 43.7703C47.2562 44.0659 47.2415 44.328 47.167 44.6818L46.1267 49.8009C45.5277 52.7565 44.9826 53.5308 43.1273 53.7946C41.1599 54.0743 40.3972 53.5379 39.0623 50.8053ZM48.5147 47.7974L48.3843 46.88C47.922 43.6281 49.7743 41.2223 53.0976 40.7498C56.166 40.3136 58.646 42.1034 59.0359 44.8456C59.22 46.1402 58.723 46.7413 57.3162 46.9413L52.7901 47.5848L52.8336 47.8906C53.0004 48.8445 53.8125 49.4362 55.046 49.2609C55.7698 49.158 56.1805 48.9748 56.4952 48.774C56.9337 48.4933 57.1727 48.1993 57.7945 48.1109C58.6202 47.9935 59.2111 48.4191 59.33 49.255C59.4343 49.989 59.0582 50.6352 58.3138 51.1779C57.5882 51.7074 56.5002 52.1013 55.1648 52.2912C51.5154 52.81 48.9901 51.141 48.5147 47.7974ZM52.4857 45.444L55.1362 45.0672L55.1333 45.0468C55.0043 44.1396 54.3974 43.6018 53.6125 43.7134C52.7358 43.8381 52.3539 44.5164 52.4828 45.4236L52.4857 45.444ZM70.3395 47.6169C70.5482 49.0849 69.9375 49.9829 68.6021 50.1728C67.2667 50.3626 66.4095 49.6733 66.2008 48.2054L65.3877 42.4865L65.2144 42.5112C64.1441 42.6634 63.476 42.2071 63.3383 41.2387C63.2006 40.2703 63.7093 39.6052 64.7796 39.453L64.9529 39.4283L64.8718 38.8575C64.4906 36.1765 65.6723 34.9788 68.2718 34.6093C69.0975 34.4919 69.7702 34.5418 70.2652 34.7315C70.8155 34.9444 71.1414 35.3349 71.2139 35.8446C71.3095 36.5174 70.9335 37.0181 70.332 37.1036C70.0976 37.1369 69.85 37.1513 69.6156 37.1846C69.0753 37.2615 68.7766 37.5015 68.8723 38.1743L68.9694 38.8573L69.6524 38.7602C70.7227 38.608 71.3937 39.0846 71.5314 40.0531C71.6691 41.0215 71.1575 41.6662 70.0872 41.8184L69.5265 41.8981L70.3395 47.6169ZM80.5173 46.4924C80.3068 47.7183 79.1223 48.6771 77.6238 48.8901C75.3403 49.2148 73.8704 48.0198 73.5037 45.4407L72.7994 40.4864C72.5907 39.0185 73.2116 38.119 74.5572 37.9277C75.8926 37.7378 76.7294 38.4301 76.9381 39.898L77.4932 43.8023C77.6497 44.9032 78.2348 45.4337 79.0707 45.3148C79.927 45.1931 80.3002 44.5264 80.1437 43.4255L79.5886 39.5212C79.3799 38.0532 79.9906 37.1552 81.3362 36.9639C82.6716 36.774 83.5186 37.4648 83.7273 38.9328L84.6839 45.6608C84.8752 47.0064 84.2193 47.9525 82.9858 48.1278C81.7727 48.3003 80.9722 47.7173 80.7212 46.4634L80.5173 46.4924ZM97.489 43.7779C97.6977 45.2458 97.0739 46.1249 95.7385 46.3147C94.3929 46.5061 93.5561 45.8138 93.3474 44.3459L92.7908 40.4314C92.6445 39.4018 92.0507 38.8102 91.2352 38.9262C90.4299 39.0406 89.9838 39.7801 90.1346 40.8402L90.6867 44.7242C90.8954 46.1921 90.2847 47.0901 88.9493 47.28C87.6037 47.4713 86.7567 46.7805 86.548 45.3126L85.5885 38.5641C85.3972 37.2185 86.056 36.2929 87.2895 36.1175C88.5026 35.945 89.3002 36.5077 89.5513 37.7616L89.7551 37.7326C89.9656 36.5066 91.1429 35.4969 92.6414 35.2838C94.9249 34.9592 96.4151 36.2241 96.7818 38.8032L97.489 43.7779Z"/>
</mask>
<path d="M12.8631 37.8467L9.14824 29.4932C8.91997 28.9848 8.76161 28.4561 8.71088 28.0994C8.54566 26.9372 9.26852 26.0233 10.4816 25.8508C11.6131 25.6899 12.3539 26.2918 12.9251 27.8226L15.1927 33.8963L15.3863 33.8687L16.0009 27.2917C16.1563 25.6784 16.6694 24.9711 17.8009 24.8102C18.9324 24.6493 19.6674 25.2104 20.2518 26.6874L22.675 32.8325L22.8789 32.8035L23.2517 26.3545C23.3372 24.7615 23.9275 23.9392 25.0794 23.7754C26.2721 23.6058 27.2094 24.2734 27.3703 25.4049C27.4224 25.7719 27.4352 26.3005 27.3928 26.5873L26.1866 35.9524C26.0022 37.3619 25.2823 38.1506 24.0081 38.3318C22.6625 38.5231 21.6828 37.9968 21.0693 36.5344L18.797 31.1582L18.6441 31.18L17.9397 37.1249C17.7772 38.4688 16.9844 39.3303 15.7408 39.5072C14.4869 39.6854 13.5072 39.3047 12.8631 37.8467ZM33.1934 25.3986C36.6186 24.9117 39.0666 26.6956 39.5333 29.9781L39.6376 30.7121C40.1362 34.2188 38.2679 36.5124 34.8427 36.9994C31.3971 37.4893 28.9534 35.8087 28.4577 32.3223L28.3548 31.5986C27.8838 28.2855 29.7478 25.8885 33.1934 25.3986ZM33.6064 28.3767C32.7705 28.4956 32.4132 29.3472 32.6306 30.8763L32.774 31.8855C32.9871 33.384 33.5734 34.143 34.4093 34.0242C35.2656 33.9025 35.5866 33.0144 35.3735 31.5159L35.23 30.5067C35.0126 28.9776 34.4627 28.255 33.6064 28.3767ZM45.6238 32.9498C45.8296 34.3974 45.181 35.3216 43.815 35.5158C42.449 35.71 41.6908 34.9858 41.485 33.5382L40.5401 26.8918C40.3314 25.4238 40.9116 24.5301 42.2368 24.3417C43.4295 24.1722 44.1805 24.6998 44.4767 25.9057L44.6806 25.8767C44.763 24.6274 45.4173 23.8167 46.4979 23.6631C47.028 23.5878 47.4691 23.6914 47.8082 23.9552C48.1372 24.2205 48.3524 24.6371 48.4306 25.1875C48.506 25.7176 48.4198 26.1355 48.1735 26.4513C47.9258 26.7569 47.5077 26.962 46.931 27.0752C45.514 27.3494 44.9528 28.23 45.1586 29.6776L45.6238 32.9498ZM54.7372 31.6541C54.943 33.1017 54.3658 34.0158 53.0406 34.2042C51.6848 34.3969 50.8043 33.6901 50.5985 32.2426L49.1303 21.9161C48.9216 20.4481 49.5324 19.5501 50.878 19.3588C52.2236 19.1675 53.0604 19.8597 53.2691 21.3276L53.9908 26.4042L54.2253 26.3709L56.671 22.9448C57.1127 22.3204 57.5497 22.0295 58.1817 21.9396C59.2215 21.7918 60.0715 22.4301 60.2193 23.4699C60.2947 24 60.1735 24.4644 59.8324 24.9185L58.0617 27.2399L60.6914 29.57C61.2254 30.0349 61.5265 30.5433 61.6048 31.0938C61.7541 32.1438 61.0632 33.0636 60.0031 33.2143C59.2691 33.3187 58.6897 33.1202 58.1047 32.5898L55.1083 29.8022L54.5749 30.5124L54.7372 31.6541ZM78.1834 28.3208C78.3921 29.7887 77.7814 30.6867 76.446 30.8766C75.1004 31.0679 74.2533 30.3771 74.0446 28.9092L73.4881 24.9947C73.3359 23.9243 72.7582 23.3721 71.9121 23.4923C71.0966 23.6083 70.6345 24.3812 70.7809 25.4108L71.333 29.2947C71.5417 30.7626 70.9208 31.6621 69.5854 31.852C68.2398 32.0433 67.403 31.351 67.1943 29.8831L65.7261 19.5566C65.5175 18.0887 66.1384 17.1892 67.484 16.9979C68.8194 16.808 69.6562 17.5003 69.8649 18.9682L70.3403 22.3118L70.5442 22.2828C70.743 21.0482 71.8809 20.0544 73.3285 19.8486C75.5916 19.5268 77.1153 20.8078 77.479 23.3665L78.1834 28.3208ZM86.0861 28.0916C85.7796 29.0088 84.8152 29.6867 83.5512 29.8664C81.4002 30.1722 79.7526 29.0441 79.4729 27.0766C79.1773 24.9971 80.5776 23.5084 83.1858 23.1271L85.347 22.8199L85.2557 22.1777C85.1629 21.5253 84.6418 21.2249 83.8874 21.3322C83.2146 21.4278 82.7368 21.7974 82.2313 22.1189C81.8685 22.3472 81.4913 22.5465 80.8796 22.6334C80.003 22.7581 79.4004 22.2509 79.2918 21.4864C79.1932 20.7932 79.5607 20.0129 80.595 19.3875C81.3204 18.9307 82.3604 18.5645 83.7467 18.3674C86.9782 17.908 89.0437 19.1223 89.4046 21.6606L90.1249 26.727C90.3249 28.1338 89.7083 28.9911 88.4239 29.1737C87.4045 29.3186 86.6112 28.9322 86.2899 28.0627L86.0861 28.0916ZM83.4605 26.1561C83.5402 26.7168 84.0773 27.0564 84.7195 26.9651C85.3821 26.8709 85.8513 26.3674 85.776 25.8373L85.6368 24.8587L84.5766 25.0094C83.8223 25.1167 83.3779 25.5751 83.4605 26.1561ZM96.0229 25.7845C96.2287 27.232 95.5801 28.1563 94.2141 28.3505C92.8481 28.5447 92.0899 27.8205 91.8841 26.3729L90.9392 19.7264C90.7305 18.2585 91.3106 17.3648 92.6359 17.1764C93.8285 17.0068 94.5796 17.5345 94.8758 18.7404L95.0797 18.7114C95.1621 17.4621 95.8164 16.6514 96.897 16.4978C97.4271 16.4224 97.8682 16.5261 98.2073 16.7899C98.5362 17.0551 98.7515 17.4717 98.8297 18.0222C98.9051 18.5523 98.8189 18.9702 98.5726 19.286C98.3248 19.5916 97.9068 19.7966 97.3301 19.9098C95.9131 20.1841 95.3519 21.0647 95.5577 22.5122L96.0229 25.7845ZM107.476 24.5618C107.242 25.7702 106.182 26.649 104.683 26.862C102.227 27.2113 100.495 25.4919 100.031 22.2298L99.9036 21.3328C99.4398 18.0707 100.618 15.9688 103.085 15.6181C104.593 15.4036 105.842 15.9228 106.402 17.008L106.606 16.979L106.156 13.8087C105.947 12.3408 106.558 11.4427 107.903 11.2514C109.249 11.0601 110.086 11.7523 110.294 13.2203L111.762 23.5468C111.971 25.0147 111.36 25.9128 110.015 26.1041C108.832 26.2722 107.981 25.6964 107.68 24.5328L107.476 24.5618ZM104.31 21.5279C104.504 22.8939 105.16 23.6326 106.057 23.5051C106.965 23.3761 107.389 22.4838 107.195 21.1178L107.098 20.4348C106.905 19.079 106.25 18.3505 105.343 18.4795C104.446 18.607 104.02 19.4891 104.213 20.8449L104.31 21.5279ZM24.4054 54.1475C24.6141 55.6154 24.0034 56.5134 22.668 56.7033C21.3224 56.8946 20.4754 56.2038 20.2667 54.7359L19.7101 50.8214C19.558 49.751 18.9802 49.1988 18.1341 49.3191C17.3186 49.435 16.8565 50.2079 17.0029 51.2375L17.5551 55.1214C17.7638 56.5893 17.1428 57.4888 15.8074 57.6787C14.4618 57.87 13.625 57.1778 13.4163 55.7098L11.9482 45.3833C11.7395 43.9154 12.3604 43.0159 13.706 42.8246C15.0414 42.6347 15.8782 43.327 16.0869 44.7949L16.5623 48.1385L16.7662 48.1095C16.965 46.8749 18.103 45.8811 19.5505 45.6753C21.8136 45.3535 23.3373 46.6345 23.7011 49.1932L24.4054 54.1475ZM32.3081 53.9183C32.0017 54.8355 31.0372 55.5134 29.7732 55.6931C27.6223 55.9989 25.9747 54.8708 25.695 52.9033C25.3993 50.8238 26.7996 49.3351 29.4079 48.9539L31.569 48.6466L31.4777 48.0044C31.3849 47.352 30.8638 47.0517 30.1095 47.1589C29.4367 47.2546 28.9588 47.6241 28.4533 47.9456C28.0906 48.1739 27.7133 48.3732 27.1017 48.4601C26.225 48.5848 25.6225 48.0776 25.5138 47.3131C25.4152 46.6199 25.7827 45.8396 26.817 45.2142C27.5424 44.7575 28.5824 44.3912 29.9688 44.1941C33.2003 43.7347 35.2657 44.949 35.6266 47.4873L36.3469 52.5537C36.5469 53.9605 35.9304 54.8178 34.6459 55.0004C33.6265 55.1453 32.8332 54.7589 32.512 53.8894L32.3081 53.9183ZM29.6825 51.9828C29.7622 52.5435 30.2993 52.8831 30.9415 52.7918C31.6041 52.6976 32.0733 52.1941 31.998 51.664L31.8588 50.6854L30.7987 50.8361C30.0443 50.9434 29.5999 51.4018 29.6825 51.9828ZM39.0623 50.8053L36.7866 46.1368C36.6528 45.8542 36.5642 45.5964 36.525 45.3212C36.3584 44.1489 37.0841 43.2553 38.3482 43.0756C39.4593 42.9176 40.2773 43.4773 40.6624 44.6498L42.5531 50.2674L42.7162 50.2442L43.1832 44.3122C43.2802 43.0192 43.8631 42.2915 44.9131 42.1422C46.1262 41.9698 47.0504 42.6184 47.2142 43.7703C47.2562 44.0659 47.2415 44.328 47.167 44.6818L46.1267 49.8009C45.5277 52.7565 44.9826 53.5308 43.1273 53.7946C41.1599 54.0743 40.3972 53.5379 39.0623 50.8053ZM48.5147 47.7974L48.3843 46.88C47.922 43.6281 49.7743 41.2223 53.0976 40.7498C56.166 40.3136 58.646 42.1034 59.0359 44.8456C59.22 46.1402 58.723 46.7413 57.3162 46.9413L52.7901 47.5848L52.8336 47.8906C53.0004 48.8445 53.8125 49.4362 55.046 49.2609C55.7698 49.158 56.1805 48.9748 56.4952 48.774C56.9337 48.4933 57.1727 48.1993 57.7945 48.1109C58.6202 47.9935 59.2111 48.4191 59.33 49.255C59.4343 49.989 59.0582 50.6352 58.3138 51.1779C57.5882 51.7074 56.5002 52.1013 55.1648 52.2912C51.5154 52.81 48.9901 51.141 48.5147 47.7974ZM52.4857 45.444L55.1362 45.0672L55.1333 45.0468C55.0043 44.1396 54.3974 43.6018 53.6125 43.7134C52.7358 43.8381 52.3539 44.5164 52.4828 45.4236L52.4857 45.444ZM70.3395 47.6169C70.5482 49.0849 69.9375 49.9829 68.6021 50.1728C67.2667 50.3626 66.4095 49.6733 66.2008 48.2054L65.3877 42.4865L65.2144 42.5112C64.1441 42.6634 63.476 42.2071 63.3383 41.2387C63.2006 40.2703 63.7093 39.6052 64.7796 39.453L64.9529 39.4283L64.8718 38.8575C64.4906 36.1765 65.6723 34.9788 68.2718 34.6093C69.0975 34.4919 69.7702 34.5418 70.2652 34.7315C70.8155 34.9444 71.1414 35.3349 71.2139 35.8446C71.3095 36.5174 70.9335 37.0181 70.332 37.1036C70.0976 37.1369 69.85 37.1513 69.6156 37.1846C69.0753 37.2615 68.7766 37.5015 68.8723 38.1743L68.9694 38.8573L69.6524 38.7602C70.7227 38.608 71.3937 39.0846 71.5314 40.0531C71.6691 41.0215 71.1575 41.6662 70.0872 41.8184L69.5265 41.8981L70.3395 47.6169ZM80.5173 46.4924C80.3068 47.7183 79.1223 48.6771 77.6238 48.8901C75.3403 49.2148 73.8704 48.0198 73.5037 45.4407L72.7994 40.4864C72.5907 39.0185 73.2116 38.119 74.5572 37.9277C75.8926 37.7378 76.7294 38.4301 76.9381 39.898L77.4932 43.8023C77.6497 44.9032 78.2348 45.4337 79.0707 45.3148C79.927 45.1931 80.3002 44.5264 80.1437 43.4255L79.5886 39.5212C79.3799 38.0532 79.9906 37.1552 81.3362 36.9639C82.6716 36.774 83.5186 37.4648 83.7273 38.9328L84.6839 45.6608C84.8752 47.0064 84.2193 47.9525 82.9858 48.1278C81.7727 48.3003 80.9722 47.7173 80.7212 46.4634L80.5173 46.4924ZM97.489 43.7779C97.6977 45.2458 97.0739 46.1249 95.7385 46.3147C94.3929 46.5061 93.5561 45.8138 93.3474 44.3459L92.7908 40.4314C92.6445 39.4018 92.0507 38.8102 91.2352 38.9262C90.4299 39.0406 89.9838 39.7801 90.1346 40.8402L90.6867 44.7242C90.8954 46.1921 90.2847 47.0901 88.9493 47.28C87.6037 47.4713 86.7567 46.7805 86.548 45.3126L85.5885 38.5641C85.3972 37.2185 86.056 36.2929 87.2895 36.1175C88.5026 35.945 89.3002 36.5077 89.5513 37.7616L89.7551 37.7326C89.9656 36.5066 91.1429 35.4969 92.6414 35.2838C94.9249 34.9592 96.4151 36.2241 96.7818 38.8032L97.489 43.7779Z" fill="white"/>
<path d="M12.8631 37.8467L17.4367 35.8262L17.4317 35.815L12.8631 37.8467ZM9.14824 29.4932L13.7169 27.4615L13.7132 27.4532L13.7095 27.445L9.14824 29.4932ZM12.9251 27.8226L8.24068 29.5707L8.24094 29.5714L12.9251 27.8226ZM15.1927 33.8963L10.5084 35.645L11.915 39.4125L15.8964 38.8465L15.1927 33.8963ZM15.3863 33.8687L16.0901 38.8189L19.9975 38.2634L20.3647 34.3339L15.3863 33.8687ZM16.0009 27.2917L11.0239 26.8122L11.0232 26.8194L11.0226 26.8266L16.0009 27.2917ZM20.2518 26.6874L24.9032 24.8531L24.9011 24.8478L20.2518 26.6874ZM22.675 32.8325L18.0236 34.6667L19.4715 38.3382L23.3788 37.7827L22.675 32.8325ZM22.8789 32.8035L23.5827 37.7537L27.6344 37.1777L27.8706 33.092L22.8789 32.8035ZM23.2517 26.3545L28.2433 26.643L28.2439 26.6328L28.2445 26.6225L23.2517 26.3545ZM27.3928 26.5873L22.4466 25.8558L22.4397 25.9022L22.4337 25.9486L27.3928 26.5873ZM26.1866 35.9524L31.1444 36.6012L31.1457 36.5911L26.1866 35.9524ZM21.0693 36.5344L25.68 34.6L25.6748 34.5878L21.0693 36.5344ZM18.797 31.1582L23.4025 29.2116L21.904 25.6662L18.0932 26.208L18.797 31.1582ZM18.6441 31.18L17.9403 26.2297L14.1315 26.7712L13.6788 30.5916L18.6441 31.18ZM17.9397 37.1249L22.9035 37.7253L22.905 37.7132L17.9397 37.1249ZM12.8631 37.8467L17.4317 35.815L13.7169 27.4615L9.14824 29.4932L4.57963 31.5249L8.29447 39.8784L12.8631 37.8467ZM9.14824 29.4932L13.7095 27.445C13.6962 27.4153 13.6824 27.3819 13.6693 27.3472C13.6561 27.3124 13.646 27.2822 13.6389 27.2595C13.6316 27.2359 13.6305 27.2295 13.6335 27.242C13.6351 27.2489 13.6386 27.2642 13.6432 27.2877C13.6477 27.3107 13.6542 27.3471 13.6611 27.3956L8.71088 28.0994L3.76066 28.8031C3.89404 29.7413 4.22212 30.7288 4.58701 31.5414L9.14824 29.4932ZM8.71088 28.0994L13.6611 27.3956C13.754 28.049 13.6118 28.9311 13.0057 29.6998C12.4159 30.4477 11.672 30.7318 11.1854 30.801L10.4816 25.8508L9.77783 20.9006C8.07812 21.1422 6.36621 21.9696 5.15307 23.5081C3.92355 25.0675 3.50254 26.9876 3.76066 28.8031L8.71088 28.0994ZM10.4816 25.8508L11.1854 30.801C10.9619 30.8328 10.5681 30.8531 10.0796 30.7343C9.5708 30.6107 9.12251 30.3755 8.77052 30.091C8.1542 29.5929 8.08464 29.1525 8.24068 29.5707L12.9251 27.8226L17.6096 26.0745C17.1944 24.9619 16.4689 23.4552 15.0565 22.3137C13.4109 20.9837 11.4878 20.6575 9.77783 20.9006L10.4816 25.8508ZM12.9251 27.8226L8.24094 29.5714L10.5084 35.645L15.1927 33.8963L19.8769 32.1475L17.6094 26.0738L12.9251 27.8226ZM15.1927 33.8963L15.8964 38.8465L16.0901 38.8189L15.3863 33.8687L14.6826 28.9185L14.4889 28.946L15.1927 33.8963ZM15.3863 33.8687L20.3647 34.3339L20.9792 27.7569L16.0009 27.2917L11.0226 26.8266L10.408 33.4036L15.3863 33.8687ZM16.0009 27.2917L20.9778 27.7712C21.0255 27.2768 21.0745 27.7635 20.5822 28.4421C20.2975 28.8346 19.9103 29.1824 19.455 29.4303C19.0266 29.6635 18.6698 29.737 18.5047 29.7604L17.8009 24.8102L17.0971 19.86C15.519 20.0844 13.7482 20.8325 12.4875 22.5705C11.417 24.0464 11.1317 25.6934 11.0239 26.8122L16.0009 27.2917ZM17.8009 24.8102L18.5047 29.7604C18.3133 29.7876 17.9502 29.8109 17.4874 29.7073C17.0021 29.5988 16.5566 29.3837 16.1927 29.1052C15.5453 28.6098 15.4513 28.1449 15.6025 28.527L20.2518 26.6874L24.9011 24.8478C24.4679 23.7529 23.7142 22.269 22.2704 21.164C20.6093 19.8928 18.7234 19.6288 17.0971 19.86L17.8009 24.8102ZM20.2518 26.6874L15.6004 28.5216L18.0236 34.6667L22.675 32.8325L27.3264 30.9982L24.9032 24.8531L20.2518 26.6874ZM22.675 32.8325L23.3788 37.7827L23.5827 37.7537L22.8789 32.8035L22.1751 27.8533L21.9713 27.8823L22.675 32.8325ZM22.8789 32.8035L27.8706 33.092L28.2433 26.643L23.2517 26.3545L18.26 26.066L17.8873 32.515L22.8789 32.8035ZM23.2517 26.3545L28.2445 26.6225C28.2619 26.2981 28.309 26.7674 27.8408 27.426C27.5843 27.7869 27.231 28.1186 26.8015 28.3642C26.3862 28.6016 26.0159 28.6925 25.7832 28.7256L25.0794 23.7754L24.3756 18.8252C22.6468 19.071 20.8998 19.9307 19.6904 21.632C18.6177 23.1409 18.327 24.8179 18.2588 26.0864L23.2517 26.3545ZM25.0794 23.7754L25.7832 28.7256C25.282 28.7969 24.4865 28.7266 23.7129 28.1762C22.9175 27.6101 22.5179 26.7968 22.4201 26.1087L27.3703 25.4049L32.3205 24.7011C32.0618 22.8815 31.1131 21.1686 29.5106 20.0283C27.93 18.9036 26.0695 18.5844 24.3756 18.8252L25.0794 23.7754ZM27.3703 25.4049L22.4201 26.1087C22.4145 26.0695 22.4143 26.0582 22.4156 26.0756C22.4167 26.0902 22.4177 26.1101 22.4181 26.1292C22.4185 26.1499 22.4178 26.1498 22.4188 26.1266C22.4193 26.1139 22.4206 26.0869 22.424 26.0473C22.4271 26.0097 22.4336 25.9436 22.4466 25.8558L27.3928 26.5873L32.339 27.3188C32.473 26.4129 32.4164 25.3756 32.3205 24.7011L27.3703 25.4049ZM27.3928 26.5873L22.4337 25.9486L21.2276 35.3138L26.1866 35.9524L31.1457 36.5911L32.3518 27.226L27.3928 26.5873ZM26.1866 35.9524L21.2289 35.3037C21.229 35.303 21.2328 35.2739 21.2462 35.2212C21.2596 35.1683 21.2836 35.0882 21.3249 34.9881C21.41 34.7814 21.5624 34.506 21.817 34.2277C22.386 33.6057 23.033 33.4201 23.3043 33.3815L24.0081 38.3318L24.7119 43.282C26.2574 43.0623 27.9015 42.3917 29.1951 40.9777C30.4455 39.611 30.9623 37.9924 31.1444 36.6012L26.1866 35.9524ZM24.0081 38.3318L23.3043 33.3815C23.4437 33.3617 24.0829 33.3186 24.8146 33.7526C25.5144 34.1676 25.7103 34.6722 25.68 34.6001L21.0693 36.5344L16.4587 38.4687C17.0419 39.8589 18.0344 41.3579 19.7138 42.3538C21.4251 43.3687 23.2268 43.4931 24.7119 43.282L24.0081 38.3318ZM21.0693 36.5344L25.6748 34.5878L23.4025 29.2116L18.797 31.1582L14.1915 33.1048L16.4638 38.481L21.0693 36.5344ZM18.797 31.1582L18.0932 26.208L17.9403 26.2297L18.6441 31.18L19.3479 36.1302L19.5008 36.1084L18.797 31.1582ZM18.6441 31.18L13.6788 30.5916L12.9744 36.5366L17.9397 37.1249L22.905 37.7132L23.6094 31.7683L18.6441 31.18ZM17.9397 37.1249L12.9759 36.5246C12.9957 36.3604 13.1038 35.8696 13.5702 35.3639C14.0592 34.8337 14.6435 34.6129 15.037 34.5569L15.7408 39.5071L16.4445 44.4574C18.0817 44.2246 19.6842 43.4846 20.9211 42.1435C22.1354 40.8269 22.7211 39.2333 22.9035 37.7253L17.9397 37.1249ZM15.7408 39.5071L15.037 34.5569C15.0551 34.5543 15.6586 34.4725 16.4118 34.8711C17.1915 35.2837 17.4447 35.8444 17.4367 35.8263L12.8631 37.8467L8.28947 39.8671C8.92553 41.3069 9.99062 42.787 11.7347 43.7099C13.4523 44.6188 15.1725 44.6382 16.4445 44.4574L15.7408 39.5071ZM33.1934 25.3986L33.8972 30.3489C34.2527 30.2983 34.4588 30.3243 34.5412 30.3415C34.6159 30.3571 34.5977 30.3661 34.5403 30.3246C34.4811 30.2818 34.4593 30.2422 34.4672 30.2564C34.4793 30.2778 34.5432 30.4016 34.5831 30.6819L39.5333 29.9781L44.4835 29.2743C44.0923 26.5224 42.7788 23.9438 40.4053 22.2251C38.0524 20.5213 35.2109 20.0615 32.4896 20.4484L33.1934 25.3986ZM39.5333 29.9781L34.5831 30.6819L34.6874 31.4159L39.6376 30.7121L44.5879 30.0083L44.4835 29.2743L39.5333 29.9781ZM39.6376 30.7121L34.6874 31.4159C34.7406 31.7899 34.7089 31.9784 34.6988 32.024C34.6915 32.0567 34.7007 32.001 34.7624 31.9215C34.8221 31.8446 34.8593 31.8378 34.7959 31.8709C34.7225 31.9091 34.5217 31.9947 34.1389 32.0492L34.8427 36.9994L35.5465 41.9496C38.2032 41.5719 40.8427 40.3961 42.6607 38.0547C44.4993 35.687 44.9834 32.7901 44.5879 30.0083L39.6376 30.7121ZM34.8427 36.9994L34.1389 32.0492C33.7481 32.1047 33.5232 32.0788 33.4343 32.0612C33.3562 32.0457 33.389 32.0391 33.4658 32.0945C33.5458 32.1521 33.5724 32.2039 33.5595 32.1803C33.5402 32.1454 33.4596 31.9817 33.408 31.6186L28.4577 32.3223L23.5075 33.0261C23.9037 35.8126 25.1877 38.4563 27.6222 40.2094C30.0242 41.9391 32.8875 42.3276 35.5465 41.9496L34.8427 36.9994ZM28.4577 32.3223L33.408 31.6186L33.3051 30.8948L28.3548 31.5986L23.4046 32.3023L23.5075 33.0261L28.4577 32.3223ZM28.3548 31.5986L33.3051 30.8948C33.2637 30.6042 33.2913 30.461 33.2977 30.4333C33.3021 30.4143 33.2931 30.4571 33.2486 30.5142C33.2055 30.5694 33.1869 30.5642 33.2582 30.5264C33.3367 30.4849 33.5333 30.4006 33.8972 30.3489L33.1934 25.3986L32.4896 20.4484C29.7659 20.8357 27.1551 22.066 25.3622 24.3656C23.5525 26.6868 23.0119 29.5404 23.4046 32.3023L28.3548 31.5986ZM33.6064 28.3767L32.9026 23.4265C30.5776 23.7571 28.8563 25.2921 28.0776 27.2494C27.4438 28.8427 27.5196 30.4496 27.6803 31.5801L32.6306 30.8763L37.5808 30.1725C37.5241 29.7739 37.6699 30.1904 37.3694 30.9459C37.1933 31.3885 36.8498 31.9722 36.2312 32.4769C35.6002 32.9915 34.9048 33.2424 34.3102 33.327L33.6064 28.3767ZM32.6306 30.8763L27.6803 31.5801L27.8238 32.5893L32.774 31.8855L37.7243 31.1817L37.5808 30.1725L32.6306 30.8763ZM32.774 31.8855L27.8238 32.5893C27.9852 33.7246 28.3634 35.2643 29.3901 36.6035C30.6262 38.2159 32.6907 39.3188 35.1131 38.9744L34.4093 34.0242L33.7055 29.074C34.3473 28.9827 35.1076 29.0479 35.8555 29.379C36.5797 29.6997 37.053 30.1629 37.3262 30.5192C37.7974 31.1339 37.7759 31.5448 37.7243 31.1817L32.774 31.8855ZM34.4093 34.0242L35.1131 38.9744C37.5277 38.6311 39.2305 37.0071 39.9688 35.0559C40.5653 33.4797 40.4784 31.9002 40.3237 30.8121L35.3735 31.5159L30.4233 32.2197C30.4816 32.6302 30.3409 32.244 30.616 31.5168C30.7789 31.0865 31.1092 30.4896 31.7328 29.9652C32.3741 29.4258 33.0906 29.1614 33.7055 29.074L34.4093 34.0242ZM35.3735 31.5159L40.3237 30.8121L40.1803 29.8029L35.23 30.5067L30.2798 31.2105L30.4233 32.2197L35.3735 31.5159ZM35.23 30.5067L40.1803 29.8029C40.0263 28.7198 39.6723 27.1539 38.6349 25.7923C37.3252 24.0735 35.2187 23.0972 32.9026 23.4265L33.6064 28.3767L34.3102 33.327C33.7419 33.4078 33.0024 33.3709 32.2354 33.0449C31.4798 32.7239 30.9765 32.2412 30.6808 31.853C30.1867 31.2046 30.2164 30.7645 30.2798 31.2105L35.23 30.5067ZM44.4767 25.9057L39.6211 27.0985L40.7006 31.4928L45.1805 30.8559L44.4767 25.9057ZM44.6806 25.8767L45.3844 30.8269L49.4027 30.2556L49.6698 26.2057L44.6806 25.8767ZM47.8082 23.9552L50.9469 20.0631L50.9128 20.0356L50.8782 20.0087L47.8082 23.9552ZM48.1735 26.4513L52.0576 29.5999L52.0873 29.5633L52.1162 29.5262L48.1735 26.4513ZM46.931 27.0752L47.8811 31.9841L47.894 31.9815L46.931 27.0752ZM45.6238 32.9498L40.6736 33.6536C40.6585 33.5476 40.5779 32.737 41.2205 31.8243C41.8998 30.8596 42.7988 30.61 43.1112 30.5656L43.815 35.5158L44.5188 40.466C46.1972 40.2274 48.1036 39.4185 49.3971 37.5813C50.6541 35.7961 50.7949 33.7996 50.574 32.246L45.6238 32.9498ZM43.815 35.5158L43.1112 30.5656C43.4398 30.5189 44.5084 30.5057 45.5072 31.3796C45.9378 31.7562 46.1772 32.1541 46.2998 32.4253C46.3601 32.5586 46.3938 32.6644 46.4119 32.7308C46.43 32.7972 46.4352 32.8341 46.4353 32.8345L41.485 33.5382L36.5348 34.242C36.7273 35.5956 37.2879 37.4755 38.9227 38.9058C40.6936 40.4551 42.8242 40.7069 44.5188 40.466L43.815 35.5158ZM41.485 33.5382L46.4353 32.8345L45.4903 26.188L40.5401 26.8918L35.5899 27.5955L36.5348 34.242L41.485 33.5382ZM40.5401 26.8918L45.4903 26.188C45.4917 26.1979 45.5172 26.3754 45.471 26.6714C45.4226 26.9816 45.2934 27.4266 44.9841 27.8945C44.2798 28.9597 43.2903 29.2422 42.9406 29.292L42.2368 24.3417L41.533 19.3915C39.858 19.6296 37.9158 20.4532 36.6424 22.3794C35.4446 24.191 35.3862 26.163 35.5899 27.5955L40.5401 26.8918ZM42.2368 24.3417L42.9406 29.292C42.6862 29.3281 41.7844 29.3746 40.8275 28.7054C39.8986 28.0558 39.6574 27.2463 39.6211 27.0985L44.4767 25.9057L49.3324 24.7128C48.9998 23.3591 48.2349 21.6829 46.5583 20.5104C44.8537 19.3184 42.98 19.1858 41.533 19.3915L42.2368 24.3417ZM44.4767 25.9057L45.1805 30.8559L45.3844 30.8269L44.6806 25.8767L43.9768 20.9265L43.7729 20.9555L44.4767 25.9057ZM44.6806 25.8767L49.6698 26.2057C49.6599 26.3558 49.5854 26.9126 49.0864 27.5231C48.5397 28.1921 47.8045 28.5276 47.2017 28.6133L46.4979 23.6631L45.7941 18.7129C44.1107 18.9522 42.5081 19.7699 41.3435 21.1949C40.2266 22.5615 39.7837 24.1483 39.6914 25.5477L44.6806 25.8767ZM46.4979 23.6631L47.2017 28.6133C46.961 28.6476 46.5837 28.6632 46.1226 28.559C45.6467 28.4515 45.1655 28.2341 44.7382 27.9017L47.8082 23.9552L50.8782 20.0087C49.2634 18.7525 47.3839 18.4869 45.7941 18.7129L46.4979 23.6631ZM47.8082 23.9552L44.6696 27.8474C43.7678 27.1202 43.5306 26.2441 43.4804 25.8913L48.4306 25.1875L53.3809 24.4838C53.1742 23.03 52.5065 21.3208 50.9469 20.0631L47.8082 23.9552ZM48.4306 25.1875L43.4804 25.8913C43.4292 25.5309 43.3971 24.4454 44.2308 23.3764L48.1735 26.4513L52.1162 29.5262C53.4425 27.8256 53.5828 25.9043 53.3809 24.4838L48.4306 25.1875ZM48.1735 26.4513L44.2894 23.3027C44.6966 22.8004 45.1386 22.5135 45.4426 22.3618C45.7347 22.2159 45.9374 22.1748 45.968 22.1688L46.931 27.0752L47.894 31.9815C49.0135 31.7618 50.7591 31.2018 52.0576 29.5999L48.1735 26.4513ZM46.931 27.0752L45.9809 22.1663C44.4335 22.4658 42.5455 23.268 41.2824 25.1533C40.0581 26.9805 40.0063 28.9603 40.2084 30.3813L45.1586 29.6775L50.1088 28.9738C50.1099 28.9817 50.1371 29.1687 50.0884 29.478C50.0365 29.8068 49.9 30.2569 49.5901 30.7195C48.9104 31.734 48.0115 31.9588 47.8811 31.9841L46.931 27.0752ZM45.1586 29.6775L40.2084 30.3813L40.6736 33.6536L45.6238 32.9498L50.574 32.246L50.1088 28.9738L45.1586 29.6775ZM53.9908 26.4042L49.0406 27.108L49.7444 32.0582L54.6946 31.3545L53.9908 26.4042ZM54.2253 26.3709L54.9291 31.3211L57.0501 31.0196L58.2948 29.2759L54.2253 26.3709ZM56.671 22.9448L60.7405 25.8498L60.7469 25.8409L60.7531 25.8321L56.671 22.9448ZM59.8324 24.9185L63.8078 27.951L63.8192 27.9362L63.8304 27.9212L59.8324 24.9185ZM58.0617 27.2399L54.0863 24.2074L51.2686 27.9011L54.7457 30.9821L58.0617 27.2399ZM60.6914 29.57L57.3754 33.3123L57.392 33.327L57.4087 33.3415L60.6914 29.57ZM58.1047 32.5898L54.6989 36.2505L54.7224 36.2724L54.7462 36.2939L58.1047 32.5898ZM55.1083 29.8022L58.5141 26.1415L54.4466 22.3573L51.1104 26.7995L55.1083 29.8022ZM54.5749 30.5124L50.5769 27.5097L49.3332 29.1658L49.6247 31.2162L54.5749 30.5124ZM54.7372 31.6541L49.787 32.3579C49.784 32.3365 49.7596 32.1557 49.8058 31.8612C49.8541 31.5539 49.9815 31.1171 50.2831 30.6576C50.9725 29.6074 51.9506 29.3089 52.3368 29.254L53.0406 34.2042L53.7443 39.1544C55.4558 38.9111 57.3851 38.0613 58.6429 36.1451C59.824 34.3459 59.8919 32.3887 59.6875 30.9504L54.7372 31.6541ZM53.0406 34.2042L52.3368 29.254C52.6646 29.2073 53.6007 29.2024 54.5192 29.9401C55.3858 30.6361 55.5336 31.4327 55.5487 31.5388L50.5985 32.2426L45.6483 32.9463C45.8691 34.5 46.5601 36.3737 48.2574 37.7369C50.0065 39.1416 52.0607 39.3938 53.7443 39.1544L53.0406 34.2042ZM50.5985 32.2426L55.5487 31.5388L54.0806 21.2123L49.1303 21.9161L44.1801 22.6198L45.6483 32.9463L50.5985 32.2426ZM49.1303 21.9161L54.0806 21.2123C54.0825 21.226 54.1952 22.0336 53.551 22.9774C52.8498 24.0048 51.8954 24.2644 51.5818 24.309L50.878 19.3588L50.1742 14.4086C48.515 14.6445 46.5824 15.4488 45.2915 17.34C44.0577 19.1476 43.9695 21.1381 44.1801 22.6198L49.1303 21.9161ZM50.878 19.3588L51.5818 24.309C51.2681 24.3536 50.2792 24.3703 49.3194 23.579C48.4376 22.8521 48.3208 22.0452 48.3189 22.0314L53.2691 21.3276L58.2193 20.6239C58.0087 19.1422 57.3691 17.2551 55.6804 15.863C53.9136 14.4065 51.8334 14.1727 50.1742 14.4086L50.878 19.3588ZM53.2691 21.3276L48.3189 22.0314L49.0406 27.108L53.9908 26.4042L58.9411 25.7005L58.2193 20.6239L53.2691 21.3276ZM53.9908 26.4042L54.6946 31.3545L54.9291 31.3211L54.2253 26.3709L53.5215 21.4207L53.2871 21.454L53.9908 26.4042ZM54.2253 26.3709L58.2948 29.2759L60.7405 25.8498L56.671 22.9448L52.6015 20.0398L50.1558 23.4659L54.2253 26.3709ZM56.671 22.9448L60.7531 25.8321C60.7439 25.8451 60.5475 26.1232 60.125 26.4043C59.6603 26.7136 59.1976 26.8455 58.8855 26.8898L58.1817 21.9396L57.4779 16.9894C56.5338 17.1236 55.5366 17.4459 54.585 18.0792C53.6755 18.6843 53.0397 19.4201 52.5889 20.0575L56.671 22.9448ZM58.1817 21.9396L58.8855 26.8898C58.1921 26.9884 57.3095 26.8411 56.5323 26.2574C55.7551 25.6737 55.3676 24.8671 55.2691 24.1737L60.2193 23.4699L65.1695 22.7661C64.633 18.9924 61.2517 16.4529 57.4779 16.9894L58.1817 21.9396ZM60.2193 23.4699L55.2691 24.1737C55.2228 23.8481 55.223 23.4157 55.3495 22.9394C55.4743 22.4693 55.6774 22.125 55.8345 21.9158L59.8324 24.9185L63.8304 27.9212C64.9324 26.454 65.4397 24.6664 65.1695 22.7661L60.2193 23.4699ZM59.8324 24.9185L55.857 21.886L54.0863 24.2074L58.0617 27.2399L62.0371 30.2724L63.8078 27.951L59.8324 24.9185ZM58.0617 27.2399L54.7457 30.9821L57.3754 33.3123L60.6914 29.57L64.0073 25.8278L61.3776 23.4977L58.0617 27.2399ZM60.6914 29.57L57.4087 33.3415C57.3488 33.2894 57.1904 33.1381 57.0271 32.8649C56.8562 32.5789 56.7139 32.2147 56.6546 31.7976L61.6048 31.0938L66.555 30.39C66.269 28.3783 65.1837 26.8515 63.974 25.7986L60.6914 29.57ZM61.6048 31.0938L56.6546 31.7976C56.5445 31.0233 56.7412 30.1759 57.2652 29.4809C57.7894 28.7858 58.5435 28.3715 59.2993 28.2641L60.0031 33.2143L60.7068 38.1645C64.4831 37.6277 67.0955 34.1917 66.555 30.39L61.6048 31.0938ZM60.0031 33.2143L59.2993 28.2641C59.5817 28.2239 60.0461 28.2196 60.574 28.395C61.0781 28.5624 61.3757 28.8063 61.4632 28.8857L58.1047 32.5898L54.7462 36.2939C56.304 37.7064 58.3371 38.5014 60.7068 38.1645L60.0031 33.2143ZM58.1047 32.5898L61.5104 28.9291L58.5141 26.1415L55.1083 29.8022L51.7026 33.4629L54.6989 36.2505L58.1047 32.5898ZM55.1083 29.8022L51.1104 26.7995L50.5769 27.5097L54.5749 30.5124L58.5729 33.5151L59.1063 32.8049L55.1083 29.8022ZM54.5749 30.5124L49.6247 31.2162L49.787 32.3579L54.7372 31.6541L59.6875 30.9504L59.5251 29.8086L54.5749 30.5124ZM70.3403 22.3118L65.3901 23.0156L66.0938 27.9658L71.0441 27.262L70.3403 22.3118ZM70.5442 22.2828L71.2479 27.233L74.8948 26.7146L75.4805 23.0779L70.5442 22.2828ZM78.1834 28.3208L73.2332 29.0245C73.2312 29.0106 73.1191 28.2077 73.7588 27.2668C74.4572 26.2396 75.4128 25.9732 75.7422 25.9264L76.446 30.8766L77.1497 35.8268C78.8145 35.5901 80.7432 34.7798 82.0286 32.8891C83.2554 31.0847 83.3443 29.0989 83.1336 27.617L78.1834 28.3208ZM76.446 30.8766L75.7422 25.9264C76.0545 25.882 77.0322 25.8655 77.9855 26.6456C78.8678 27.3676 78.9906 28.1751 78.9949 28.2054L74.0446 28.9092L69.0944 29.613C69.3074 31.1112 69.9581 32.9981 71.6524 34.3846C73.4178 35.8292 75.4919 36.0625 77.1497 35.8268L76.446 30.8766ZM74.0446 28.9092L78.9949 28.2054L78.4383 24.2909L73.4881 24.9947L68.5379 25.6985L69.0944 29.613L74.0446 28.9092ZM73.4881 24.9947L78.4383 24.2909C78.2666 23.0831 77.7652 21.4705 76.4117 20.1792C74.9066 18.7434 72.9633 18.2926 71.2083 18.5421L71.9121 23.4923L72.6159 28.4426C71.707 28.5718 70.4756 28.3369 69.509 27.4148C68.6939 26.6372 68.5574 25.8359 68.5379 25.6985L73.4881 24.9947ZM71.9121 23.4923L71.2083 18.5421C69.2704 18.8177 67.6407 19.9445 66.6833 21.5617C65.7816 23.0847 65.6351 24.7393 65.8306 26.1146L70.7809 25.4108L75.7311 24.707C75.7802 25.0527 75.7916 25.806 75.2883 26.6562C74.7292 27.6005 73.7384 28.283 72.6159 28.4426L71.9121 23.4923ZM70.7809 25.4108L65.8306 26.1146L66.3828 29.9985L71.333 29.2947L76.2833 28.5909L75.7311 24.707L70.7809 25.4108ZM71.333 29.2947L66.3828 29.9985C66.3785 29.968 66.272 29.1629 66.9136 28.2264C67.6088 27.2118 68.5537 26.9484 68.8816 26.9017L69.5854 31.852L70.2892 36.8022C71.9526 36.5657 73.8756 35.7576 75.1629 33.8788C76.3967 32.0781 76.4963 30.0893 76.2833 28.5909L71.333 29.2947ZM69.5854 31.852L68.8816 26.9017C69.1952 26.8572 70.1842 26.8405 71.144 27.6317C72.0257 28.3586 72.1425 29.1656 72.1445 29.1793L67.1943 29.8831L62.2441 30.5869C62.4547 32.0686 63.0943 33.9556 64.783 35.3478C66.5498 36.8043 68.63 37.0381 70.2892 36.8022L69.5854 31.852ZM67.1943 29.8831L72.1445 29.1793L70.6764 18.8528L65.7261 19.5566L60.7759 20.2604L62.2441 30.5869L67.1943 29.8831ZM65.7261 19.5566L70.6764 18.8528C70.6807 18.8831 70.7878 19.6928 70.1417 20.6321C69.4437 21.647 68.5 21.9037 68.1878 21.9481L67.484 16.9979L66.7802 12.0477C65.1223 12.2834 63.1954 13.0855 61.9027 14.9649C60.6619 16.7687 60.5629 18.7621 60.7759 20.2604L65.7261 19.5566ZM67.484 16.9979L68.1878 21.9481C67.8584 21.9949 66.8664 22.0054 65.9094 21.2136C65.0328 20.4882 64.9167 19.6859 64.9147 19.672L69.8649 18.9682L74.8151 18.2644C74.6044 16.7825 73.9656 14.9001 72.2845 13.5091C70.5231 12.0517 68.445 11.811 66.7802 12.0477L67.484 16.9979ZM69.8649 18.9682L64.9147 19.672L65.3901 23.0156L70.3403 22.3118L75.2905 21.608L74.8151 18.2644L69.8649 18.9682ZM70.3403 22.3118L71.0441 27.262L71.2479 27.233L70.5442 22.2828L69.8404 17.3326L69.6365 17.3616L70.3403 22.3118ZM70.5442 22.2828L75.4805 23.0779C75.3712 23.7567 75.0295 24.2078 74.7585 24.4446C74.4892 24.6799 74.2267 24.7712 74.0323 24.7988L73.3285 19.8486L72.6247 14.8983C69.5015 15.3424 66.2282 17.6359 65.6078 21.4877L70.5442 22.2828ZM73.3285 19.8486L74.0323 24.7988C74.0651 24.7941 73.9314 24.8183 73.6862 24.7579C73.4252 24.6937 73.1381 24.5573 72.8872 24.3451C72.3823 23.918 72.4603 23.5881 72.5288 24.0703L77.479 23.3665L82.4293 22.6627C82.134 20.5861 81.2683 18.3364 79.3448 16.7096C77.3372 15.0118 74.8729 14.5787 72.6247 14.8983L73.3285 19.8486ZM77.479 23.3665L72.5288 24.0703L73.2332 29.0245L78.1834 28.3208L83.1336 27.617L82.4293 22.6627L77.479 23.3665ZM86.0861 28.0916L85.3823 23.1414L82.3229 23.5764L81.3437 26.5073L86.0861 28.0916ZM83.1858 23.1271L82.4821 18.1769L82.4724 18.1783L82.4627 18.1797L83.1858 23.1271ZM85.347 22.8199L86.0507 27.7701L91.001 27.0663L90.2972 22.1161L85.347 22.8199ZM82.2313 22.1189L84.8952 26.3501L84.9048 26.3441L84.9144 26.338L82.2313 22.1189ZM80.595 19.3875L83.1823 23.666L83.2208 23.6427L83.2589 23.6187L80.595 19.3875ZM86.2899 28.0627L90.9801 26.33L89.5816 22.5444L85.5861 23.1124L86.2899 28.0627ZM85.6368 24.8587L90.587 24.1549L89.8833 19.2047L84.933 19.9085L85.6368 24.8587ZM86.0861 28.0916L81.3437 26.5073C81.5819 25.7944 82.0134 25.3676 82.3079 25.1612C82.5964 24.959 82.8047 24.9223 82.8474 24.9162L83.5512 29.8664L84.255 34.8167C86.7035 34.4685 89.7289 32.9672 90.8284 29.676L86.0861 28.0916ZM83.5512 29.8664L82.8474 24.9162C82.7929 24.924 83.1509 24.8671 83.6339 25.1976C84.1584 25.5565 84.3801 26.0703 84.4232 26.3728L79.4729 27.0766L74.5227 27.7804C74.8454 30.0504 76.0308 32.112 77.9868 33.4504C79.9012 34.7604 82.1585 35.1147 84.255 34.8167L83.5512 29.8664ZM79.4729 27.0766L84.4232 26.3728C84.4394 26.4869 84.4505 26.7374 84.3535 27.0632C84.2541 27.3967 84.0786 27.6821 83.8831 27.89C83.5174 28.279 83.334 28.1586 83.9089 28.0746L83.1858 23.1271L82.4627 18.1797C80.4294 18.4769 78.2418 19.2914 76.5977 21.04C74.8329 22.917 74.1793 25.3653 74.5227 27.7804L79.4729 27.0766ZM83.1858 23.1271L83.8896 28.0774L86.0507 27.7701L85.347 22.8199L84.6432 17.8697L82.4821 18.1769L83.1858 23.1271ZM85.347 22.8199L90.2972 22.1161L90.2059 21.4739L85.2557 22.1777L80.3054 22.8815L80.3967 23.5237L85.347 22.8199ZM85.2557 22.1777L90.2059 21.4739C89.9764 19.8599 89.0899 18.2122 87.4124 17.1948C85.885 16.2685 84.2956 16.2239 83.1837 16.382L83.8875 21.3322L84.5912 26.2824C84.2336 26.3333 83.282 26.3852 82.2269 25.7453C81.0217 25.0144 80.4421 23.8431 80.3054 22.8815L85.2557 22.1777ZM83.8875 21.3322L83.1837 16.382C81.1643 16.6691 79.5645 17.8893 79.5482 17.8997L82.2313 22.1189L84.9144 26.338C85.0072 26.2789 85.0936 26.2225 85.1573 26.1808C85.2286 26.1342 85.2713 26.1062 85.3146 26.0783C85.3986 26.0243 85.4061 26.0221 85.3785 26.0371C85.3447 26.0554 85.2516 26.1035 85.112 26.1538C84.9677 26.2058 84.7914 26.254 84.5912 26.2824L83.8875 21.3322ZM82.2313 22.1189L79.5674 17.8876C79.4914 17.9354 79.5794 17.8742 79.7407 17.8076C79.9194 17.7338 80.0775 17.6972 80.1759 17.6832L80.8796 22.6334L81.5834 27.5836C83.1363 27.3629 84.1892 26.7946 84.8952 26.3501L82.2313 22.1189ZM80.8796 22.6334L80.1759 17.6832C80.8667 17.585 81.8802 17.7004 82.811 18.4033C83.723 19.0921 84.1348 20.0289 84.242 20.7826L79.2918 21.4864L74.3415 22.1902C74.5574 23.7084 75.3248 25.2811 76.7844 26.3833C78.2628 27.4998 80.0159 27.8065 81.5834 27.5836L80.8796 22.6334ZM79.2918 21.4864L84.242 20.7826C84.3592 21.6069 84.1664 22.3641 83.8432 22.921C83.5411 23.4416 83.2137 23.647 83.1823 23.666L80.595 19.3875L78.0077 15.1089C75.8604 16.4074 73.8735 18.8984 74.3415 22.1902L79.2918 21.4864ZM80.595 19.3875L83.2589 23.6187C83.2174 23.6449 83.5276 23.4488 84.4505 23.3176L83.7467 18.3674L83.043 13.4172C81.1931 13.6802 79.4235 14.2166 77.931 15.1562L80.595 19.3875ZM83.7467 18.3674L84.4505 23.3176C84.8909 23.255 85.1545 23.2699 85.2695 23.2856C85.3796 23.3005 85.3037 23.3085 85.1318 23.2082C84.9436 23.0983 84.7474 22.9199 84.6038 22.694C84.4673 22.4795 84.4504 22.3368 84.4543 22.3644L89.4046 21.6606L94.3548 20.9568C93.9864 18.3657 92.6156 15.9974 90.1725 14.5715C87.9084 13.2501 85.332 13.0917 83.043 13.4172L83.7467 18.3674ZM89.4046 21.6606L84.4543 22.3644L85.1746 27.4308L90.1249 26.727L95.0751 26.0233L94.3548 20.9568L89.4046 21.6606ZM90.1249 26.727L85.1746 27.4308C85.1611 27.3353 85.0698 26.4903 85.7377 25.5381C86.4452 24.5295 87.3888 24.2705 87.7201 24.2234L88.4239 29.1737L89.1277 34.1239C90.7434 33.8942 92.6375 33.1153 93.9244 31.2807C95.1717 29.5026 95.2887 27.5255 95.0751 26.0233L90.1249 26.727ZM88.4239 29.1737L87.7201 24.2234C87.9804 24.1864 88.617 24.1609 89.3722 24.5472C90.1959 24.9686 90.7351 25.6667 90.9801 26.33L86.2899 28.0627L81.5997 29.7953C82.166 31.3281 83.2625 32.6543 84.818 33.45C86.305 34.2106 87.848 34.3058 89.1277 34.1239L88.4239 29.1737ZM86.2899 28.0627L85.5861 23.1124L85.3823 23.1414L86.0861 28.0916L86.7898 33.0419L86.9937 33.0129L86.2899 28.0627ZM83.4605 26.1561L78.5102 26.8599C79.0746 30.8294 82.7748 32.2919 85.4233 31.9153L84.7195 26.9651L84.0157 22.0149C84.7293 21.9134 85.6692 22.0149 86.5729 22.5928C87.5223 23.2 88.2367 24.2287 88.4107 25.4523L83.4605 26.1561ZM84.7195 26.9651L85.4233 31.9153C87.7616 31.5829 91.3253 29.3475 90.7262 25.1335L85.776 25.8373L80.8257 26.5411C80.6145 25.0554 81.2166 23.8508 81.8727 23.1494C82.5181 22.4593 83.3038 22.1161 84.0157 22.0149L84.7195 26.9651ZM85.776 25.8373L90.7262 25.1335L90.587 24.1549L85.6368 24.8587L80.6866 25.5625L80.8257 26.5411L85.776 25.8373ZM85.6368 24.8587L84.933 19.9085L83.8729 20.0592L84.5766 25.0094L85.2804 29.9596L86.3406 29.8089L85.6368 24.8587ZM84.5766 25.0094L83.8729 20.0592C82.699 20.2261 81.2738 20.7327 80.1199 21.9196C78.8699 23.2051 78.2462 25.0028 78.5102 26.8599L83.4605 26.1561L88.4107 25.4523C88.5921 26.7284 88.1493 28.0064 87.2895 28.8906C86.5257 29.6762 85.7 29.9 85.2804 29.9596L84.5766 25.0094ZM94.8758 18.7404L90.0202 19.9332L91.0997 24.3275L95.5796 23.6906L94.8758 18.7404ZM95.0797 18.7114L95.7835 23.6616L99.8018 23.0903L100.069 19.0404L95.0797 18.7114ZM98.2073 16.7899L101.346 12.8978L101.312 12.8703L101.277 12.8434L98.2073 16.7899ZM98.5726 19.286L102.457 22.4346L102.486 22.398L102.515 22.3609L98.5726 19.286ZM97.3301 19.9098L98.2802 24.8187L98.2931 24.8162L97.3301 19.9098ZM96.0229 25.7845L91.0727 26.4883C91.0576 26.3822 90.977 25.5716 91.6196 24.659C92.2988 23.6943 93.1979 23.4447 93.5103 23.4002L94.2141 28.3505L94.9179 33.3007C96.5963 33.0621 98.5026 32.2532 99.7962 30.416C101.053 28.6308 101.194 26.6343 100.973 25.0807L96.0229 25.7845ZM94.2141 28.3505L93.5103 23.4002C93.8389 23.3535 94.9074 23.3404 95.9063 24.2143C96.3368 24.5909 96.5763 24.9888 96.6989 25.26C96.7591 25.3933 96.7929 25.499 96.811 25.5654C96.8291 25.6319 96.8343 25.6688 96.8343 25.6691L91.8841 26.3729L86.9339 27.0767C87.1263 28.4302 87.687 30.3102 89.3217 31.7404C91.0927 33.2898 93.2233 33.5416 94.9179 33.3007L94.2141 28.3505ZM91.8841 26.3729L96.8343 25.6691L95.8894 19.0227L90.9392 19.7264L85.989 20.4302L86.9339 27.0767L91.8841 26.3729ZM90.9392 19.7264L95.8894 19.0227C95.8908 19.0326 95.9163 19.2101 95.8701 19.5061C95.8217 19.8162 95.6925 20.2613 95.3831 20.7292C94.6789 21.7944 93.6894 22.0769 93.3396 22.1266L92.6358 17.1764L91.9321 12.2262C90.2571 12.4643 88.3149 13.2879 87.0415 15.214C85.8437 17.0257 85.7853 18.9977 85.989 20.4302L90.9392 19.7264ZM92.6358 17.1764L93.3396 22.1266C93.0853 22.1628 92.1835 22.2092 91.2266 21.5401C90.2977 20.8905 90.0565 20.081 90.0202 19.9332L94.8758 18.7404L99.7314 17.5475C99.3989 16.1938 98.634 14.5176 96.9574 13.3451C95.2528 12.153 93.3791 12.0205 91.9321 12.2262L92.6358 17.1764ZM94.8758 18.7404L95.5796 23.6906L95.7835 23.6616L95.0797 18.7114L94.3759 13.7611L94.172 13.7901L94.8758 18.7404ZM95.0797 18.7114L100.069 19.0404C100.059 19.1905 99.9845 19.7473 99.4855 20.3578C98.9388 21.0268 98.2036 21.3623 97.6008 21.448L96.897 16.4978L96.1932 11.5476C94.5098 11.7869 92.9072 12.6046 91.7425 14.0296C90.6256 15.3962 90.1828 16.9829 90.0905 18.3824L95.0797 18.7114ZM96.897 16.4978L97.6008 21.448C97.3601 21.4822 96.9828 21.4979 96.5217 21.3937C96.0458 21.2862 95.5646 21.0688 95.1373 20.7364L98.2073 16.7899L101.277 12.8434C99.6625 11.5872 97.783 11.3216 96.1932 11.5476L96.897 16.4978ZM98.2073 16.7899L95.0686 20.682C94.1669 19.9548 93.9297 19.0788 93.8795 18.726L98.8297 18.0222L103.78 17.3184C103.573 15.8647 102.906 14.1555 101.346 12.8978L98.2073 16.7899ZM98.8297 18.0222L93.8795 18.726C93.8283 18.3656 93.7962 17.2801 94.6299 16.2111L98.5726 19.286L102.515 22.3609C103.842 20.6603 103.982 18.739 103.78 17.3184L98.8297 18.0222ZM98.5726 19.286L94.6885 16.1374C95.0957 15.6351 95.5377 15.3481 95.8416 15.1964C96.1338 15.0506 96.3365 15.0095 96.3671 15.0034L97.3301 19.9098L98.2931 24.8162C99.4126 24.5965 101.158 24.0365 102.457 22.4346L98.5726 19.286ZM97.3301 19.9098L96.38 15.0009C94.8326 15.3004 92.9446 16.1027 91.6815 17.9879C90.4572 19.8152 90.4054 21.795 90.6074 23.216L95.5577 22.5122L100.508 21.8084C100.509 21.8164 100.536 22.0034 100.487 22.3126C100.436 22.6414 100.299 23.0916 99.9891 23.5542C99.3094 24.5686 98.4106 24.7935 98.2802 24.8187L97.3301 19.9098ZM95.5577 22.5122L90.6074 23.216L91.0727 26.4883L96.0229 25.7845L100.973 25.0807L100.508 21.8084L95.5577 22.5122ZM107.476 24.5618L106.773 19.6115L103.244 20.1132L102.567 23.612L107.476 24.5618ZM106.402 17.008L101.959 19.3005L103.588 22.4584L107.106 21.9582L106.402 17.008ZM106.606 16.979L107.31 21.9292L112.26 21.2255L111.556 16.2752L106.606 16.979ZM107.68 24.5328L112.521 23.282L111.403 18.9532L106.976 19.5825L107.68 24.5328ZM107.476 24.5618L102.567 23.612C102.686 23.0003 103.019 22.5193 103.372 22.2282C103.7 21.9575 103.956 21.9152 103.98 21.9118L104.683 26.862L105.387 31.8123C108.396 31.3844 111.642 29.3533 112.385 25.5115L107.476 24.5618ZM104.683 26.862L103.98 21.9118C104.021 21.9059 104.216 21.8895 104.494 21.9775C104.779 22.0677 105 22.2204 105.136 22.3557C105.259 22.4777 105.255 22.5262 105.197 22.3929C105.138 22.2576 105.046 21.9822 104.981 21.526L100.031 22.2298L95.0809 22.9336C95.4057 25.2181 96.2584 27.629 98.0833 29.4447C100.067 31.4184 102.713 32.1925 105.387 31.8123L104.683 26.862ZM100.031 22.2298L104.981 21.526L104.854 20.629L99.9036 21.3328L94.9534 22.0365L95.0809 22.9336L100.031 22.2298ZM99.9036 21.3328L104.854 20.629C104.789 20.1698 104.801 19.8821 104.818 19.7413C104.836 19.6034 104.852 19.6583 104.762 19.819C104.663 19.997 104.487 20.2076 104.238 20.3721C103.997 20.5311 103.813 20.5648 103.789 20.5683L103.085 15.6181L102.381 10.6679C99.7345 11.0441 97.3977 12.4928 96.0283 14.9484C94.7703 17.2041 94.6297 19.7599 94.9534 22.0365L99.9036 21.3328ZM103.085 15.6181L103.789 20.5683C103.814 20.5647 103.571 20.6059 103.171 20.4387C102.731 20.255 102.254 19.8729 101.959 19.3005L106.402 17.008L110.846 14.7155C109.025 11.1872 105.307 10.2519 102.381 10.6679L103.085 15.6181ZM106.402 17.008L107.106 21.9582L107.31 21.9292L106.606 16.979L105.902 12.0288L105.699 12.0578L106.402 17.008ZM106.606 16.979L111.556 16.2752L111.106 13.1049L106.156 13.8087L101.205 14.5125L101.656 17.6828L106.606 16.979ZM106.156 13.8087L111.106 13.1049C111.108 13.1187 111.22 13.9262 110.576 14.87C109.875 15.8974 108.921 16.1571 108.607 16.2016L107.903 11.2514L107.199 6.3012C105.54 6.53709 103.608 7.34139 102.317 9.23262C101.083 11.0403 100.995 13.0308 101.205 14.5125L106.156 13.8087ZM107.903 11.2514L108.607 16.2016C108.293 16.2462 107.304 16.2629 106.345 15.4717C105.463 14.7448 105.346 13.9378 105.344 13.9241L110.294 13.2203L115.244 12.5165C115.034 11.0348 114.394 9.14777 112.706 7.75562C110.939 6.29909 108.859 6.06531 107.199 6.3012L107.903 11.2514ZM110.294 13.2203L105.344 13.9241L106.812 24.2506L111.762 23.5468L116.713 22.843L115.244 12.5165L110.294 13.2203ZM111.762 23.5468L106.812 24.2506C106.81 24.2368 106.697 23.4293 107.342 22.4855C108.043 21.4581 108.997 21.1984 109.311 21.1538L110.015 26.1041L110.719 31.0543C112.378 30.8184 114.31 30.0141 115.601 28.1229C116.835 26.3152 116.923 24.3247 116.713 22.843L111.762 23.5468ZM110.015 26.1041L109.311 21.1538C109.688 21.1003 110.486 21.1156 111.311 21.6714C112.13 22.2232 112.434 22.9429 112.521 23.282L107.68 24.5328L102.839 25.7835C103.227 27.2863 104.107 28.8757 105.723 29.9642C107.344 31.0568 109.159 31.276 110.719 31.0543L110.015 26.1041ZM107.68 24.5328L106.976 19.5825L106.773 19.6115L107.476 24.5618L108.18 29.512L108.384 29.483L107.68 24.5328ZM104.31 21.5279L99.3595 22.2317C99.5353 23.4678 99.9948 25.0561 101.176 26.3904C102.531 27.9221 104.564 28.7677 106.761 28.4553L106.057 23.5051L105.353 18.5549C105.902 18.4769 106.553 18.5183 107.213 18.7697C107.865 19.0182 108.345 19.4025 108.664 19.7628C109.244 20.4181 109.278 20.9541 109.26 20.8242L104.31 21.5279ZM106.057 23.5051L106.761 28.4553C108.943 28.1451 110.668 26.7842 111.553 24.925C112.323 23.3085 112.32 21.649 112.145 20.414L107.195 21.1178L102.244 21.8216C102.263 21.9526 102.145 21.4223 102.525 20.6256C102.733 20.1874 103.09 19.6857 103.647 19.2685C104.209 18.8471 104.817 18.6311 105.353 18.5549L106.057 23.5051ZM107.195 21.1178L112.145 20.414L112.048 19.731L107.098 20.4348L102.147 21.1386L102.244 21.8216L107.195 21.1178ZM107.098 20.4348L112.048 19.731C111.872 18.4957 111.41 16.8977 110.209 15.56C108.828 14.0223 106.794 13.2228 104.639 13.5292L105.343 18.4795L106.047 23.4297C105.521 23.5044 104.885 23.4697 104.231 23.2267C103.582 22.9856 103.096 22.6067 102.768 22.2406C102.169 21.574 102.13 21.018 102.147 21.1386L107.098 20.4348ZM105.343 18.4795L104.639 13.5292C102.468 13.8378 100.747 15.1897 99.8598 17.0413C99.0868 18.6548 99.0867 20.3124 99.2624 21.5487L104.213 20.8449L109.163 20.1412C109.146 20.0217 109.262 20.5603 108.878 21.3619C108.668 21.8017 108.309 22.3022 107.753 22.7178C107.192 23.1373 106.584 23.3532 106.047 23.4297L105.343 18.4795ZM104.213 20.8449L99.2624 21.5487L99.3595 22.2317L104.31 21.5279L109.26 20.8242L109.163 20.1412L104.213 20.8449ZM16.5623 48.1385L11.6121 48.8423L12.3159 53.7925L17.2661 53.0887L16.5623 48.1385ZM16.7662 48.1095L17.47 53.0598L21.1168 52.5413L21.7026 48.9046L16.7662 48.1095ZM24.4054 54.1475L19.4552 54.8513C19.4532 54.8373 19.3411 54.0344 19.9809 53.0935C20.6792 52.0663 21.6348 51.7999 21.9642 51.7531L22.668 56.7033L23.3718 61.6535C25.0365 61.4168 26.9653 60.6065 28.2506 58.7158C29.4774 56.9114 29.5663 54.9256 29.3556 53.4437L24.4054 54.1475ZM22.668 56.7033L21.9642 51.7531C22.2765 51.7087 23.2543 51.6922 24.2075 52.4723C25.0898 53.1943 25.2126 54.0018 25.2169 54.0321L20.2667 54.7359L15.3164 55.4397C15.5295 56.9379 16.1801 58.8248 17.8745 60.2113C19.6398 61.6559 21.7139 61.8892 23.3718 61.6535L22.668 56.7033ZM20.2667 54.7359L25.2169 54.0321L24.6604 50.1176L19.7101 50.8214L14.7599 51.5252L15.3164 55.4397L20.2667 54.7359ZM19.7101 50.8214L24.6604 50.1176C24.4886 48.9098 23.9872 47.2972 22.6337 46.0059C21.1286 44.5702 19.1854 44.1193 17.4304 44.3688L18.1341 49.3191L18.8379 54.2693C17.929 54.3985 16.6977 54.1637 15.731 53.2415C14.9159 52.4639 14.7795 51.6626 14.7599 51.5252L19.7101 50.8214ZM18.1341 49.3191L17.4304 44.3688C15.4924 44.6444 13.8627 45.7712 12.9053 47.3884C12.0036 48.9114 11.8571 50.566 12.0527 51.9413L17.0029 51.2375L21.9531 50.5337C22.0023 50.8794 22.0136 51.6327 21.5103 52.4829C20.9512 53.4272 19.9604 54.1097 18.8379 54.2693L18.1341 49.3191ZM17.0029 51.2375L12.0527 51.9413L12.6048 55.8252L17.5551 55.1214L22.5053 54.4176L21.9531 50.5337L17.0029 51.2375ZM17.5551 55.1214L12.6048 55.8252C12.6005 55.7947 12.494 54.9896 13.1357 54.0531C13.8308 53.0385 14.7757 52.7751 15.1037 52.7285L15.8074 57.6787L16.5112 62.6289C18.1746 62.3924 20.0976 61.5843 21.3849 59.7055C22.6187 57.9048 22.7183 55.916 22.5053 54.4176L17.5551 55.1214ZM15.8074 57.6787L15.1037 52.7285C15.4173 52.6839 16.4062 52.6672 17.366 53.4584C18.2478 54.1853 18.3646 54.9923 18.3665 55.006L13.4163 55.7098L8.46609 56.4136C8.67674 57.8953 9.31631 59.7823 11.005 61.1745C12.7718 62.631 14.852 62.8648 16.5112 62.6289L15.8074 57.6787ZM13.4163 55.7098L18.3665 55.006L16.8984 44.6795L11.9482 45.3833L6.99795 46.0871L8.46609 56.4136L13.4163 55.7098ZM11.9482 45.3833L16.8984 44.6795C16.9027 44.7098 17.0099 45.5196 16.3637 46.4589C15.6657 47.4737 14.7221 47.7304 14.4098 47.7748L13.706 42.8246L13.0022 37.8744C11.3443 38.1101 9.41744 38.9122 8.1247 40.7916C6.8839 42.5954 6.78494 44.5889 6.99795 46.0871L11.9482 45.3833ZM13.706 42.8246L14.4098 47.7748C14.0804 47.8216 13.0884 47.8321 12.1314 47.0403C11.2548 46.3149 11.1387 45.5127 11.1367 45.4987L16.0869 44.7949L21.0372 44.0911C20.8265 42.6092 20.1876 40.7269 18.5065 39.3358C16.7451 37.8784 14.667 37.6377 13.0022 37.8744L13.706 42.8246ZM16.0869 44.7949L11.1367 45.4987L11.6121 48.8423L16.5623 48.1385L21.5125 47.4347L21.0372 44.0911L16.0869 44.7949ZM16.5623 48.1385L17.2661 53.0887L17.47 53.0598L16.7662 48.1095L16.0624 43.1593L15.8585 43.1883L16.5623 48.1385ZM16.7662 48.1095L21.7026 48.9046C21.5932 49.5834 21.2515 50.0345 20.9805 50.2713C20.7112 50.5066 20.4487 50.5979 20.2543 50.6255L19.5505 45.6753L18.8467 40.7251C15.7235 41.1691 12.4502 43.4626 11.8298 47.3145L16.7662 48.1095ZM19.5505 45.6753L20.2543 50.6255C20.2872 50.6208 20.1534 50.645 19.9082 50.5847C19.6472 50.5204 19.3601 50.384 19.1093 50.1718C18.6043 49.7447 18.6823 49.4149 18.7508 49.897L23.7011 49.1932L28.6513 48.4894C28.3561 46.4129 27.4903 44.1631 25.5668 42.5363C23.5592 40.8385 21.0949 40.4054 18.8467 40.7251L19.5505 45.6753ZM23.7011 49.1932L18.7508 49.897L19.4552 54.8513L24.4054 54.1475L29.3556 53.4437L28.6513 48.4894L23.7011 49.1932ZM32.3081 53.9183L31.6043 48.9681L28.5449 49.4031L27.5657 52.334L32.3081 53.9183ZM29.4079 48.9539L28.7041 44.0036L28.6944 44.005L28.6847 44.0064L29.4079 48.9539ZM31.569 48.6466L32.2728 53.5968L37.223 52.893L36.5192 47.9428L31.569 48.6466ZM28.4533 47.9456L31.1172 52.1768L31.1268 52.1708L31.1364 52.1647L28.4533 47.9456ZM26.817 45.2142L29.4043 49.4927L29.4428 49.4694L29.4809 49.4454L26.817 45.2142ZM32.512 53.8894L37.2022 52.1567L35.8037 48.3711L31.8082 48.9391L32.512 53.8894ZM31.8588 50.6854L36.8091 49.9816L36.1053 45.0314L31.1551 45.7352L31.8588 50.6854ZM32.3081 53.9183L27.5657 52.334C27.8039 51.6211 28.2354 51.1943 28.5299 50.9879C28.8184 50.7857 29.0268 50.749 29.0694 50.7429L29.7732 55.6931L30.477 60.6434C32.9255 60.2953 35.9509 58.7939 37.0504 55.5027L32.3081 53.9183ZM29.7732 55.6931L29.0694 50.7429C29.015 50.7507 29.373 50.6938 29.8559 51.0243C30.3804 51.3832 30.6022 51.897 30.6452 52.1996L25.695 52.9033L20.7447 53.6071C21.0675 55.8772 22.2528 57.9387 24.2088 59.2771C26.1232 60.5871 28.3805 60.9414 30.477 60.6434L29.7732 55.6931ZM25.695 52.9033L30.6452 52.1996C30.6614 52.3136 30.6726 52.5641 30.5755 52.8899C30.4762 53.2234 30.3007 53.5088 30.1051 53.7168C29.7394 54.1057 29.556 53.9853 30.131 53.9013L29.4079 48.9539L28.6847 44.0064C26.6515 44.3036 24.4638 45.1182 22.8198 46.8667C21.0549 48.7437 20.4014 51.192 20.7447 53.6071L25.695 52.9033ZM29.4079 48.9539L30.1116 53.9041L32.2728 53.5968L31.569 48.6466L30.8652 43.6964L28.7041 44.0036L29.4079 48.9539ZM31.569 48.6466L36.5192 47.9428L36.4279 47.3006L31.4777 48.0044L26.5275 48.7082L26.6188 49.3504L31.569 48.6466ZM31.4777 48.0044L36.4279 47.3006C36.1984 45.6866 35.3119 44.0389 33.6345 43.0216C32.107 42.0952 30.5176 42.0506 29.4057 42.2087L30.1095 47.1589L30.8133 52.1091C30.4557 52.16 29.504 52.2119 28.4489 51.572C27.2438 50.8411 26.6642 49.6698 26.5275 48.7082L31.4777 48.0044ZM30.1095 47.1589L29.4057 42.2087C27.3863 42.4958 25.7866 43.716 25.7702 43.7265L28.4533 47.9456L31.1364 52.1647C31.2293 52.1056 31.3156 52.0492 31.3793 52.0075C31.4506 51.9609 31.4933 51.9329 31.5366 51.905C31.6206 51.851 31.6281 51.8488 31.6005 51.8638C31.5667 51.8821 31.4736 51.9302 31.334 51.9805C31.1897 52.0325 31.0134 52.0807 30.8133 52.1091L30.1095 47.1589ZM28.4533 47.9456L25.7894 43.7143C25.7134 43.7621 25.8014 43.7009 25.9627 43.6343C26.1415 43.5605 26.2996 43.5239 26.3979 43.5099L27.1017 48.4601L27.8054 53.4104C29.3583 53.1896 30.4112 52.6213 31.1172 52.1768L28.4533 47.9456ZM27.1017 48.4601L26.3979 43.5099C27.0888 43.4117 28.1023 43.5271 29.033 44.23C29.945 44.9188 30.3568 45.8556 30.464 46.6093L25.5138 47.3131L20.5636 48.0169C20.7794 49.5351 21.5469 51.1078 23.0064 52.2101C24.4848 53.3265 26.2379 53.6332 27.8054 53.4104L27.1017 48.4601ZM25.5138 47.3131L30.464 46.6093C30.5812 47.4336 30.3884 48.1908 30.0652 48.7477C29.7631 49.2683 29.4357 49.4737 29.4043 49.4927L26.817 45.2142L24.2297 40.9357C22.0825 42.2341 20.0956 44.7251 20.5636 48.0169L25.5138 47.3131ZM26.817 45.2142L29.4809 49.4454C29.4394 49.4716 29.7496 49.2755 30.6725 49.1443L29.9688 44.1941L29.265 39.2439C27.4152 39.5069 25.6455 40.0433 24.1531 40.9829L26.817 45.2142ZM29.9688 44.1941L30.6725 49.1443C31.1129 49.0817 31.3766 49.0966 31.4916 49.1123C31.6016 49.1273 31.5257 49.1352 31.3538 49.0349C31.1656 48.925 30.9695 48.7466 30.8258 48.5207C30.6894 48.3062 30.6724 48.1635 30.6764 48.1911L35.6266 47.4873L40.5768 46.7835C40.2084 44.1924 38.8376 41.8241 36.3945 40.3982C34.1304 39.0769 31.554 38.9184 29.265 39.2439L29.9688 44.1941ZM35.6266 47.4873L30.6764 48.1911L31.3967 53.2575L36.3469 52.5537L41.2971 51.85L40.5768 46.7835L35.6266 47.4873ZM36.3469 52.5537L31.3967 53.2575C31.3831 53.162 31.2918 52.317 31.9597 51.3648C32.6672 50.3562 33.6108 50.0973 33.9421 50.0502L34.6459 55.0004L35.3497 59.9506C36.9654 59.7209 38.8596 58.942 40.1465 57.1074C41.3937 55.3293 41.5107 53.3522 41.2971 51.85L36.3469 52.5537ZM34.6459 55.0004L33.9421 50.0502C34.2024 50.0132 34.839 49.9876 35.5942 50.3739C36.4179 50.7953 36.9571 51.4934 37.2022 52.1567L32.512 53.8894L27.8218 55.622C28.388 57.1548 29.4845 58.481 31.0401 59.2767C32.5271 60.0374 34.0701 60.1325 35.3497 59.9506L34.6459 55.0004ZM32.512 53.8894L31.8082 48.9391L31.6043 48.9681L32.3081 53.9183L33.0119 58.8686L33.2157 58.8396L32.512 53.8894ZM29.6825 51.9828L24.7323 52.6866C25.2966 56.6561 28.9968 58.1186 31.6453 57.742L30.9415 52.7918L30.2377 47.8416C30.9513 47.7402 31.8912 47.8416 32.7949 48.4195C33.7443 49.0267 34.4587 50.0554 34.6327 51.279L29.6825 51.9828ZM30.9415 52.7918L31.6453 57.742C33.9836 57.4096 37.5473 55.1742 36.9482 50.9602L31.998 51.664L27.0478 52.3678C26.8365 50.8821 27.4386 49.6775 28.0947 48.9761C28.7401 48.286 29.5259 47.9428 30.2377 47.8416L30.9415 52.7918ZM31.998 51.664L36.9482 50.9602L36.8091 49.9816L31.8588 50.6854L26.9086 51.3892L27.0478 52.3678L31.998 51.664ZM31.8588 50.6854L31.1551 45.7352L30.0949 45.8859L30.7987 50.8361L31.5025 55.7864L32.5626 55.6356L31.8588 50.6854ZM30.7987 50.8361L30.0949 45.8859C28.921 46.0528 27.4958 46.5594 26.3419 47.7463C25.092 49.0318 24.4682 50.8295 24.7323 52.6866L29.6825 51.9828L34.6327 51.279C34.8141 52.5551 34.3713 53.8331 33.5116 54.7173C32.7478 55.5029 31.922 55.7267 31.5025 55.7864L30.7987 50.8361ZM39.0623 50.8053L34.5679 52.9962L34.5697 52.9999L39.0623 50.8053ZM36.7866 46.1368L32.2674 48.2762L32.2796 48.302L32.2921 48.3277L36.7866 46.1368ZM40.6624 44.6498L35.9121 46.21L35.9178 46.2274L35.9236 46.2447L40.6624 44.6498ZM42.5531 50.2674L37.8142 51.8623L39.1405 55.8028L43.2568 55.2176L42.5531 50.2674ZM42.7162 50.2442L43.4199 55.1944L47.3863 54.6305L47.7007 50.6367L42.7162 50.2442ZM43.1832 44.3122L48.1678 44.7046L48.1685 44.6954L48.1692 44.6861L43.1832 44.3122ZM47.167 44.6818L42.2743 43.6515L42.2706 43.6688L42.2671 43.6861L47.167 44.6818ZM46.1267 49.8009L41.2269 48.8053L41.2264 48.8078L46.1267 49.8009ZM39.0623 50.8053L43.5568 48.6144L41.281 43.9459L36.7866 46.1368L32.2921 48.3277L34.5679 52.9962L39.0623 50.8053ZM36.7866 46.1368L41.3058 43.9974C41.3133 44.0134 41.4229 44.2494 41.4752 44.6174L36.525 45.3212L31.5748 46.025C31.7054 46.9434 31.9923 47.6951 32.2674 48.2762L36.7866 46.1368ZM36.525 45.3212L41.4752 44.6174C41.5671 45.2631 41.4291 46.1805 40.7817 46.9779C40.1647 47.7377 39.4275 47.9724 39.052 48.0258L38.3482 43.0756L37.6444 38.1254C36.0048 38.3585 34.2727 39.1298 33.0185 40.6745C31.7338 42.2567 31.3163 44.2069 31.5748 46.025L36.525 45.3212ZM38.3482 43.0756L39.052 48.0258C38.5778 48.0932 37.7595 48.039 36.9624 47.4959C36.2175 46.9884 35.9673 46.3782 35.9121 46.21L40.6624 44.6498L45.4127 43.0895C44.9724 41.7489 44.1207 40.2726 42.5927 39.2316C41.0125 38.155 39.2297 37.9 37.6444 38.1254L38.3482 43.0756ZM40.6624 44.6498L35.9236 46.2447L37.8142 51.8623L42.5531 50.2674L47.2919 48.6725L45.4012 43.0549L40.6624 44.6498ZM42.5531 50.2674L43.2568 55.2176L43.4199 55.1944L42.7162 50.2442L42.0124 45.294L41.8493 45.3172L42.5531 50.2674ZM42.7162 50.2442L47.7007 50.6367L48.1678 44.7046L43.1832 44.3122L38.1986 43.9197L37.7316 49.8518L42.7162 50.2442ZM43.1832 44.3122L48.1692 44.6861C48.1687 44.6924 48.159 44.8248 48.087 45.0394C48.0126 45.2611 47.8679 45.58 47.5986 45.9175C46.9775 46.6956 46.1597 47.0153 45.6169 47.0925L44.9131 42.1422L44.2093 37.192C42.6165 37.4185 40.9822 38.1767 39.783 39.6792C38.665 41.0798 38.2924 42.6688 38.1972 43.9382L43.1832 44.3122ZM44.9131 42.1422L45.6169 47.0925C45.1802 47.1545 44.3799 47.1136 43.5737 46.5445C42.7369 45.9538 42.3552 45.1161 42.264 44.4741L47.2142 43.7703L52.1644 43.0665C51.9093 41.2726 50.9837 39.5346 49.3405 38.3748C47.728 37.2365 45.8591 36.9575 44.2093 37.192L44.9131 42.1422ZM47.2142 43.7703L42.264 44.4741C42.242 44.3195 42.231 44.1346 42.2412 43.9407C42.2506 43.7624 42.2743 43.6515 42.2743 43.6515L47.167 44.6818L52.0597 45.7121C52.2254 44.9249 52.3061 44.063 52.1644 43.0665L47.2142 43.7703ZM47.167 44.6818L42.2671 43.6861L41.2269 48.8053L46.1267 49.8009L51.0266 50.7966L52.0668 45.6775L47.167 44.6818ZM46.1267 49.8009L41.2264 48.8078C41.0915 49.4733 40.9925 49.8451 40.9235 50.0517C40.8542 50.2592 40.8783 50.1028 41.0855 49.8241C41.1975 49.6734 41.3494 49.5051 41.5445 49.3435C41.7398 49.1818 41.9365 49.0615 42.1125 48.9761C42.4373 48.8186 42.619 48.8166 42.4235 48.8443L43.1273 53.7946L43.8311 58.7448C45.4128 58.5199 47.5436 57.8983 49.1108 55.7902C50.3024 54.1873 50.7425 52.1985 51.0271 50.7941L46.1267 49.8009ZM43.1273 53.7946L42.4235 48.8443C42.1543 48.8826 42.2691 48.8382 42.5692 48.8818C42.7381 48.9063 42.9523 48.9563 43.1883 49.0509C43.4262 49.1463 43.6345 49.2661 43.8065 49.3917C44.1318 49.6293 44.2281 49.8153 44.1301 49.6699C44.0293 49.5205 43.8488 49.2122 43.5549 48.6106L39.0623 50.8053L34.5697 52.9999C35.2149 54.3207 36.1932 56.2145 37.9088 57.4674C40.0749 59.0493 42.36 58.9539 43.8311 58.7448L43.1273 53.7946ZM52.7901 47.5848L52.0863 42.6346L47.1361 43.3383L47.8399 48.2886L52.7901 47.5848ZM52.8336 47.8906L47.8834 48.5944L47.8946 48.6733L47.9083 48.7519L52.8336 47.8906ZM56.4952 48.774L59.1843 52.9893L59.1912 52.9849L56.4952 48.774ZM58.3138 51.1779L55.3686 47.1374L55.366 47.1392L58.3138 51.1779ZM52.4857 45.444L47.5355 46.1478L48.2393 51.098L53.1895 50.3943L52.4857 45.444ZM55.1362 45.0672L55.84 50.0174L60.7902 49.3137L60.0864 44.3634L55.1362 45.0672ZM48.5147 47.7974L53.4649 47.0936L53.3345 46.1762L48.3843 46.88L43.4341 47.5837L43.5645 48.5012L48.5147 47.7974ZM48.3843 46.88L53.3345 46.1762C53.2966 45.9093 53.3221 45.7762 53.3283 45.7496C53.333 45.7296 53.3256 45.7676 53.2845 45.8211C53.2443 45.8734 53.222 45.8751 53.2729 45.8476C53.3294 45.817 53.4906 45.7442 53.8014 45.7001L53.0976 40.7498L52.3938 35.7996C49.6788 36.1856 47.1116 37.4446 45.3581 39.7242C43.5948 42.0167 43.0436 44.8373 43.4341 47.5837L48.3843 46.88ZM53.0976 40.7498L53.8014 45.7001C54.0018 45.6716 54.1242 45.6885 54.1778 45.7005C54.2315 45.7125 54.2337 45.7228 54.2063 45.7036C54.178 45.6839 54.1418 45.6488 54.113 45.6017C54.0833 45.5533 54.0825 45.527 54.0857 45.5494L59.0359 44.8456L63.9861 44.1418C63.1632 38.3535 57.8731 35.0206 52.3938 35.7996L53.0976 40.7498ZM59.0359 44.8456L54.0857 45.5494C54.084 45.5377 54.0418 45.2577 54.119 44.8209C54.205 44.3344 54.4308 43.7119 54.91 43.129C55.8319 42.0074 56.9025 41.9498 56.6125 41.9911L57.3162 46.9413L58.02 51.8915C59.1368 51.7327 61.1592 51.2746 62.6353 49.4788C64.2064 47.5673 64.1634 45.3891 63.9861 44.1418L59.0359 44.8456ZM57.3162 46.9413L56.6125 41.9911L52.0863 42.6346L52.7901 47.5848L53.4939 52.535L58.02 51.8915L57.3162 46.9413ZM52.7901 47.5848L47.8399 48.2886L47.8834 48.5944L52.8336 47.8906L57.7838 47.1868L57.7403 46.881L52.7901 47.5848ZM52.8336 47.8906L47.9083 48.7519C48.2086 50.4687 49.1687 52.1236 50.8187 53.1939C52.4239 54.2352 54.2173 54.429 55.7498 54.2111L55.046 49.2609L54.3422 44.3106C54.6412 44.2681 55.4118 44.2537 56.2609 44.8045C57.1548 45.3843 57.6254 46.2664 57.7588 47.0293L52.8336 47.8906ZM55.046 49.2609L55.7498 54.2111C57.1198 54.0163 58.2185 53.6054 59.1843 52.9893L56.4952 48.774L53.8061 44.5587C53.8551 44.5274 53.922 44.488 54.0026 44.4477C54.0831 44.4075 54.1601 44.375 54.2294 44.3501C54.3687 44.2999 54.4243 44.299 54.3422 44.3106L55.046 49.2609ZM56.4952 48.774L59.1912 52.9849C59.4485 52.8202 59.6645 52.6607 59.7426 52.6037C59.7669 52.586 59.7807 52.5759 59.7926 52.5674C59.8035 52.5594 59.8067 52.5573 59.8051 52.5584C59.8023 52.5604 59.7697 52.5832 59.7175 52.6157C59.6024 52.6873 59.4141 52.7922 59.168 52.8858C58.9209 52.9798 58.6909 53.0337 58.4983 53.0611L57.7945 48.1109L57.0907 43.1607C55.9976 43.3161 55.1302 43.6923 54.4347 44.125C54.1573 44.2976 53.9216 44.4721 53.8489 44.5251C53.7395 44.6049 53.7612 44.5875 53.7992 44.5631L56.4952 48.774ZM57.7945 48.1109L58.4983 53.0611C57.9124 53.1444 56.8683 53.0941 55.8578 52.3481C54.8339 51.5923 54.4685 50.5832 54.3798 49.9588L59.33 49.255L64.2802 48.5512C64.0726 47.0909 63.3523 45.451 61.7969 44.3028C60.2547 43.1644 58.5023 42.96 57.0907 43.1607L57.7945 48.1109ZM59.33 49.255L54.3798 49.9588C54.274 49.2149 54.4316 48.4826 54.7442 47.9058C55.0201 47.3967 55.3266 47.168 55.3686 47.1374L58.3138 51.1779L61.2589 55.2184C62.8412 54.0651 64.7421 51.7998 64.2802 48.5512L59.33 49.255ZM58.3138 51.1779L55.366 47.1392C55.4734 47.0608 55.4727 47.0869 55.2923 47.1511C55.1211 47.212 54.8464 47.2862 54.461 47.341L55.1648 52.2912L55.8686 57.2414C57.689 56.9826 59.651 56.3921 61.2615 55.2165L58.3138 51.1779ZM55.1648 52.2912L54.461 47.341C53.5005 47.4775 53.2937 47.2456 53.4373 47.3421C53.504 47.3868 53.5485 47.4439 53.5607 47.4648C53.5668 47.4754 53.5051 47.376 53.4649 47.0936L48.5147 47.7974L43.5645 48.5012C43.9672 51.3335 45.3484 53.9553 47.8617 55.6434C50.2992 57.2805 53.1797 57.6237 55.8686 57.2414L55.1648 52.2912ZM52.4857 45.444L53.1895 50.3943L55.84 50.0174L55.1362 45.0672L54.4324 40.117L51.782 40.4938L52.4857 45.444ZM55.1362 45.0672L60.0864 44.3634L60.0835 44.343L55.1333 45.0468L50.1831 45.7506L50.186 45.771L55.1362 45.0672ZM55.1333 45.0468L60.0835 44.343C59.8883 42.9699 59.2627 41.4236 57.9208 40.2435C56.5098 39.0025 54.6818 38.5111 52.9087 38.7632L53.6125 43.7134L54.3163 48.6637C53.3282 48.8041 52.1961 48.5258 51.3169 47.7527C50.5069 47.0403 50.2493 46.2165 50.1831 45.7506L55.1333 45.0468ZM53.6125 43.7134L52.9087 38.7632C51.234 39.0013 49.5268 39.8928 48.4456 41.6012C47.4427 43.1859 47.3548 44.8768 47.5326 46.1274L52.4829 45.4236L57.4331 44.7199C57.4819 45.0633 57.5205 45.9614 56.8955 46.9489C56.1922 48.0602 55.1143 48.5502 54.3163 48.6637L53.6125 43.7134ZM52.4829 45.4236L47.5326 46.1274L47.5355 46.1478L52.4857 45.444L57.436 44.7403L57.4331 44.7199L52.4829 45.4236ZM65.3877 42.4865L70.3379 41.7828L69.6342 36.8325L64.6839 37.5363L65.3877 42.4865ZM64.9529 39.4283L65.6567 44.3786L70.6069 43.6748L69.9032 38.7246L64.9529 39.4283ZM70.2652 34.7315L72.0698 30.0685L72.0619 30.0654L72.054 30.0624L70.2652 34.7315ZM68.9694 38.8573L64.0191 39.5611L64.7229 44.5113L69.6731 43.8075L68.9694 38.8573ZM69.5265 41.8981L68.8227 36.9479L63.8725 37.6517L64.5763 42.6019L69.5265 41.8981ZM70.3395 47.6169L65.3893 48.3207C65.3873 48.3068 65.2752 47.5039 65.915 46.563C66.6133 45.5358 67.5689 45.2694 67.8983 45.2226L68.6021 50.1728L69.3059 55.123C70.9707 54.8863 72.8994 54.0759 74.1847 52.1853C75.4115 50.3809 75.5004 48.3951 75.2898 46.9132L70.3395 47.6169ZM68.6021 50.1728L67.8983 45.2226C68.2249 45.1761 69.1946 45.166 70.1385 45.9355C71.0162 46.6512 71.1443 47.4546 71.151 47.5016L66.2008 48.2054L61.2506 48.9091C61.4659 50.4241 62.127 52.3061 63.8194 53.686C65.5779 55.1197 67.6439 55.3593 69.3059 55.123L68.6021 50.1728ZM66.2008 48.2054L71.151 47.5016L70.3379 41.7828L65.3877 42.4865L60.4375 43.1903L61.2506 48.9091L66.2008 48.2054ZM65.3877 42.4865L64.6839 37.5363L64.5106 37.561L65.2144 42.5112L65.9182 47.4614L66.0915 47.4368L65.3877 42.4865ZM65.2144 42.5112L64.5106 37.561C64.7512 37.5267 65.6993 37.4547 66.7367 38.1595C67.8562 38.9202 68.2109 39.9886 68.2885 40.5349L63.3383 41.2387L58.3881 41.9425C58.6034 43.4573 59.361 45.2379 61.1166 46.4308C62.79 47.5679 64.6072 47.6478 65.9182 47.4614L65.2144 42.5112ZM63.3383 41.2387L68.2885 40.5349C68.365 41.0724 68.3228 42.1421 67.5186 43.1528C66.7466 44.1232 65.8133 44.3563 65.4834 44.4032L64.7796 39.453L64.0759 34.5028C62.6756 34.7018 60.9528 35.3436 59.6933 36.9267C58.4017 38.5501 58.174 40.4365 58.3881 41.9425L63.3383 41.2387ZM64.7796 39.453L65.4834 44.4032L65.6567 44.3786L64.9529 39.4283L64.2492 34.4781L64.0759 34.5028L64.7796 39.453ZM64.9529 39.4283L69.9032 38.7246L69.822 38.1537L64.8718 38.8575L59.9216 39.5613L60.0027 40.1321L64.9529 39.4283ZM64.8718 38.8575L69.822 38.1537C69.7816 37.8694 69.8219 37.881 69.7819 38.0837C69.7333 38.3293 69.593 38.7136 69.2801 39.0855C68.9805 39.4416 68.6858 39.5927 68.5972 39.6315C68.5315 39.6603 68.6227 39.6097 68.9756 39.5595L68.2718 34.6093L67.568 29.6591C65.7883 29.9121 63.3687 30.5788 61.6281 32.6476C59.7822 34.8416 59.6252 37.477 59.9216 39.5613L64.8718 38.8575ZM68.2718 34.6093L68.9756 39.5595C69.1111 39.5402 69.1371 39.5492 69.0703 39.5448C69.0082 39.5408 68.7894 39.5204 68.4764 39.4005L70.2652 34.7315L72.054 30.0624C70.4864 29.4618 68.8788 29.4727 67.568 29.6591L68.2718 34.6093ZM70.2652 34.7315L68.4606 39.3944C68.084 39.2487 67.5669 38.9552 67.1046 38.4099C66.6281 37.8477 66.3543 37.1858 66.2636 36.5484L71.2139 35.8446L76.1641 35.1408C75.8033 32.603 74.0728 30.8437 72.0698 30.0685L70.2652 34.7315ZM71.2139 35.8446L66.2636 36.5484C66.1563 35.7935 66.2765 34.7523 66.9667 33.7867C67.6659 32.8086 68.684 32.2876 69.6283 32.1534L70.332 37.1036L71.0358 42.0538C72.5816 41.834 74.0884 41.02 75.102 39.602C76.1067 38.1964 76.3671 36.5686 76.1641 35.1408L71.2139 35.8446ZM70.332 37.1036L69.6283 32.1534C69.6344 32.1525 69.621 32.1546 69.4811 32.1684C69.38 32.1785 69.1524 32.2002 68.9118 32.2344L69.6156 37.1846L70.3193 42.1349C70.3132 42.1357 70.3266 42.1336 70.4665 42.1198C70.5676 42.1098 70.7952 42.088 71.0358 42.0538L70.332 37.1036ZM69.6156 37.1846L68.9118 32.2344C68.2313 32.3312 66.5139 32.662 65.1907 34.2237C63.7592 35.9132 63.7736 37.834 63.922 38.8781L68.8723 38.1743L73.8225 37.4705C73.8753 37.8419 73.9912 39.3062 72.8202 40.6883C71.7575 41.9425 70.4595 42.1149 70.3193 42.1349L69.6156 37.1846ZM68.8723 38.1743L63.922 38.8781L64.0191 39.5611L68.9694 38.8573L73.9196 38.1535L73.8225 37.4705L68.8723 38.1743ZM68.9694 38.8573L69.6731 43.8075L70.3561 43.7104L69.6524 38.7602L68.9486 33.81L68.2656 33.9071L68.9694 38.8573ZM69.6524 38.7602L70.3561 43.7104C70.0708 43.751 69.1161 43.8056 68.0911 43.0943C67.0048 42.3404 66.6582 41.2988 66.5812 40.7569L71.5314 40.0531L76.4816 39.3493C76.2669 37.8389 75.516 36.0748 73.7921 34.8786C72.1296 33.7249 70.3043 33.6173 68.9486 33.81L69.6524 38.7602ZM71.5314 40.0531L66.5812 40.7569C66.5041 40.2149 66.5466 39.118 67.3798 38.0912C68.166 37.1224 69.098 36.9088 69.3834 36.8682L70.0872 41.8184L70.7909 46.7686C72.1466 46.5759 73.8697 45.9637 75.1448 44.3925C76.4669 42.7632 76.6963 40.8597 76.4816 39.3493L71.5314 40.0531ZM70.0872 41.8184L69.3834 36.8682L68.8227 36.9479L69.5265 41.8981L70.2303 46.8483L70.7909 46.7686L70.0872 41.8184ZM69.5265 41.8981L64.5763 42.6019L65.3893 48.3207L70.3395 47.6169L75.2898 46.9132L74.4767 41.1943L69.5265 41.8981ZM80.5173 46.4924L79.8135 41.5421L76.2061 42.055L75.5894 45.6462L80.5173 46.4924ZM80.7212 46.4634L85.6238 45.4817L84.696 40.848L80.0174 41.5132L80.7212 46.4634ZM80.5173 46.4924L75.5894 45.6462C75.7187 44.8931 76.1146 44.4258 76.376 44.2106C76.6321 43.9998 76.8361 43.9518 76.92 43.9399L77.6238 48.8901L78.3276 53.8404C81.2664 53.4225 84.7589 51.3353 85.4452 47.3385L80.5173 46.4924ZM77.6238 48.8901L76.92 43.9399C76.8397 43.9513 76.9491 43.923 77.1871 43.9776C77.4463 44.0371 77.7573 44.1734 78.0403 44.4085C78.6117 44.8833 78.5305 45.2754 78.454 44.7369L73.5037 45.4407L68.5535 46.1445C68.8436 48.1851 69.6807 50.4642 71.6496 52.1001C73.7002 53.8038 76.1725 54.1468 78.3276 53.8404L77.6238 48.8901ZM73.5037 45.4407L78.454 44.7369L77.7496 39.7826L72.7994 40.4864L67.8492 41.1902L68.5535 46.1445L73.5037 45.4407ZM72.7994 40.4864L77.7496 39.7826C77.7539 39.8129 77.8611 40.6227 77.215 41.562C76.5169 42.5768 75.5733 42.8335 75.261 42.8779L74.5572 37.9277L73.8534 32.9775C72.1956 33.2132 70.2687 34.0153 68.9759 35.8947C67.7351 37.6985 67.6362 39.6919 67.8492 41.1902L72.7994 40.4864ZM74.5572 37.9277L75.261 42.8779C74.9316 42.9247 73.9396 42.9352 72.9827 42.1434C72.106 41.418 71.9899 40.6158 71.9879 40.6018L76.9381 39.898L81.8884 39.1942C81.6777 37.7123 81.0388 35.83 79.3577 34.4389C77.5964 32.9815 75.5182 32.7408 73.8534 32.9775L74.5572 37.9277ZM76.9381 39.898L71.9879 40.6018L72.543 44.5061L77.4932 43.8023L82.4434 43.0985L81.8884 39.1942L76.9381 39.898ZM77.4932 43.8023L72.543 44.5061C72.7158 45.7218 73.2192 47.3522 74.5935 48.6505C76.1179 50.0906 78.0615 50.5086 79.7745 50.265L79.0707 45.3148L78.3669 40.3646C79.2439 40.2399 80.4771 40.4521 81.4609 41.3815C82.2945 42.169 82.4271 42.9837 82.4434 43.0985L77.4932 43.8023ZM79.0707 45.3148L79.7745 50.265C81.4782 50.0228 83.2729 49.0832 84.3387 47.1996C85.2727 45.5489 85.2544 43.8504 85.0939 42.7217L80.1437 43.4255L75.1934 44.1293C75.1895 44.1015 75.0628 43.2868 75.6353 42.2751C75.9413 41.7342 76.3892 41.2517 76.9474 40.8983C77.4878 40.5563 78.0012 40.4166 78.3669 40.3646L79.0707 45.3148ZM80.1437 43.4255L85.0939 42.7217L84.5388 38.8174L79.5886 39.5212L74.6384 40.225L75.1934 44.1293L80.1437 43.4255ZM79.5886 39.5212L84.5388 38.8174C84.5408 38.8312 84.6535 39.6387 84.0093 40.5825C83.3081 41.6099 82.3536 41.8695 82.04 41.9141L81.3362 36.9639L80.6324 32.0137C78.9732 32.2496 77.0406 33.0539 75.7498 34.9451C74.516 36.7527 74.4277 38.7433 74.6384 40.225L79.5886 39.5212ZM81.3362 36.9639L82.04 41.9141C81.712 41.9607 80.7312 41.9711 79.7808 41.1904C78.9035 40.4699 78.7814 39.667 78.7771 39.6365L83.7273 38.9328L88.6776 38.229C88.4645 36.7306 87.8146 34.8483 86.1278 33.4629C84.3679 32.0173 82.2958 31.7772 80.6324 32.0137L81.3362 36.9639ZM83.7273 38.9328L78.7771 39.6365L79.7337 46.3646L84.6839 45.6608L89.6341 44.957L88.6776 38.229L83.7273 38.9328ZM84.6839 45.6608L79.7337 46.3646C79.6967 46.1046 79.6739 45.3342 80.2531 44.4944C80.8676 43.6034 81.7327 43.2557 82.282 43.1776L82.9858 48.1278L83.6896 53.078C85.4724 52.8246 87.2821 51.9162 88.4851 50.1719C89.6529 48.4788 89.8624 46.5626 89.6341 44.957L84.6839 45.6608ZM82.9858 48.1278L82.282 43.1776C82.6065 43.1315 83.5168 43.1146 84.4493 43.7983C85.3552 44.4625 85.583 45.2775 85.6238 45.4817L80.7212 46.4634L75.8185 47.445C76.1105 48.9032 76.864 50.6366 78.5362 51.8627C80.2349 53.1083 82.1521 53.2966 83.6896 53.078L82.9858 48.1278ZM80.7212 46.4634L80.0174 41.5132L79.8135 41.5421L80.5173 46.4924L81.2211 51.4426L81.4249 51.4136L80.7212 46.4634ZM89.5513 37.7616L84.6486 38.7432L85.5764 43.377L90.255 42.7118L89.5513 37.7616ZM89.7551 37.7326L90.4589 42.6828L94.0664 42.1699L94.683 38.5788L89.7551 37.7326ZM97.489 43.7779L92.5388 44.4816C92.5345 44.4512 92.4253 43.6241 93.0872 42.6719C93.7958 41.6523 94.7435 41.4059 95.0347 41.3645L95.7385 46.3147L96.4423 51.265C98.0688 51.0337 99.9962 50.2528 101.298 48.3793C102.554 46.5731 102.652 44.5725 102.439 43.0741L97.489 43.7779ZM95.7385 46.3147L95.0347 41.3645C95.3483 41.3199 96.3373 41.3033 97.2971 42.0945C98.1788 42.8214 98.2956 43.6283 98.2976 43.6421L93.3474 44.3459L88.3971 45.0497C88.6078 46.5314 89.2474 48.4184 90.9361 49.8106C92.7029 51.2671 94.7831 51.5009 96.4423 51.265L95.7385 46.3147ZM93.3474 44.3459L98.2976 43.6421L97.7411 39.7276L92.7908 40.4314L87.8406 41.1352L88.3971 45.0497L93.3474 44.3459ZM92.7908 40.4314L97.7411 39.7276C97.5633 38.4773 97.0391 36.9225 95.7555 35.6702C94.3441 34.2932 92.4288 33.7062 90.5314 33.9759L91.2352 38.9262L91.939 43.8764C90.8571 44.0302 89.6465 43.681 88.7724 42.8282C88.0262 42.1002 87.872 41.3559 87.8406 41.1352L92.7908 40.4314ZM91.2352 38.9262L90.5314 33.9759C88.6394 34.2449 86.9824 35.3367 86.0067 37.0106C85.1014 38.5637 84.9966 40.2232 85.1843 41.544L90.1346 40.8402L95.0848 40.1365C95.1218 40.3971 95.1647 41.1569 94.6461 42.0466C94.057 43.057 93.0257 43.7219 91.939 43.8764L91.2352 38.9262ZM90.1346 40.8402L85.1843 41.544L85.7365 45.4279L90.6867 44.7242L95.637 44.0204L95.0848 40.1365L90.1346 40.8402ZM90.6867 44.7242L85.7365 45.4279C85.7345 45.414 85.6224 44.6111 86.2622 43.6702C86.9605 42.643 87.9161 42.3766 88.2455 42.3298L88.9493 47.28L89.6531 52.2302C91.3179 51.9935 93.2466 51.1831 94.5319 49.2925C95.7587 47.4881 95.8476 45.5023 95.637 44.0204L90.6867 44.7242ZM88.9493 47.28L88.2455 42.3298C88.5578 42.2854 89.5356 42.2689 90.4888 43.049C91.3711 43.771 91.4939 44.5785 91.4982 44.6088L86.548 45.3126L81.5978 46.0163C81.8108 47.5146 82.4614 49.4014 84.1558 50.788C85.9211 52.2326 87.9952 52.4659 89.6531 52.2302L88.9493 47.28ZM86.548 45.3126L91.4982 44.6088L90.5388 37.8604L85.5885 38.5641L80.6383 39.2679L81.5978 46.0163L86.548 45.3126ZM85.5885 38.5641L90.5388 37.8604C90.576 38.1224 90.5998 38.9134 90.0014 39.7686C89.3729 40.6668 88.5058 40.9949 87.9933 41.0677L87.2895 36.1175L86.5857 31.1673C84.8398 31.4155 83.0265 32.2941 81.8081 34.0354C80.6197 35.7337 80.4098 37.6603 80.6383 39.2679L85.5885 38.5641ZM87.2895 36.1175L87.9933 41.0677C87.708 41.1083 86.8019 41.142 85.8562 40.4598C84.9246 39.7879 84.6901 38.9509 84.6486 38.7432L89.5513 37.7616L94.4539 36.7799C94.1613 35.3184 93.4025 33.573 91.7061 32.3495C89.9955 31.1156 88.0841 30.9543 86.5857 31.1673L87.2895 36.1175ZM89.5513 37.7616L90.255 42.7118L90.4589 42.6828L89.7551 37.7326L89.0514 32.7824L88.8475 32.8113L89.5513 37.7616ZM89.7551 37.7326L94.683 38.5788C94.5603 39.2932 94.1963 39.7314 93.956 39.936C93.7122 40.1434 93.4912 40.2133 93.3452 40.234L92.6414 35.2838L91.9376 30.3336C88.8509 30.7724 85.4929 33.0096 84.8273 36.8864L89.7551 37.7326ZM92.6414 35.2838L93.3452 40.234C93.3969 40.2267 93.2689 40.2532 93.0208 40.193C92.7542 40.1283 92.4553 39.988 92.1928 39.7649C91.6693 39.3201 91.7563 38.978 91.8315 39.507L96.7818 38.8032L101.732 38.0994C101.441 36.0494 100.599 33.7852 98.6679 32.1443C96.6436 30.4243 94.1662 30.0168 91.9376 30.3336L92.6414 35.2838ZM96.7818 38.8032L91.8315 39.507L92.5388 44.4816L97.489 43.7779L102.439 43.0741L101.732 38.0994L96.7818 38.8032Z" fill="#FF3236" mask="url(#path-1-outside-1_206_96)"/>
</svg>
